<svg width="66" height="64" viewBox="0 0 66 64" fill="none" xmlns="http://www.w3.org/2000/svg">
<g clip-path="url(#clip0_93_1204)">
<path d="M65.4587 55.2404C65.4587 57.7561 51.7324 59.7944 32.7728 59.7944C13.8177 59.7944 0.5 57.7561 0.5 55.2404C0.5 52.7247 13.8177 50.6864 32.7728 50.6864C51.7278 50.6864 65.4587 52.7247 65.4587 55.2404Z" fill="#7E7E7F"/>
<path d="M13.0781 47.5739C13.225 47.248 13.3765 46.9221 13.5326 46.6007C15.1623 43.2311 17.5495 42.6068 21.9979 42.694C30.6239 42.8639 38.9422 42.5104 45.5437 42.8271C49.4871 43.0154 51.5667 44.6864 52.8292 47.1424C52.9256 47.3306 50.6073 47.4546 50.3272 47.4775" fill="white"/>
<path d="M47.5224 60.0331L36.1603 60.258L26.8504 60.1984L10.1631 58.7752C10.2319 58.5641 9.80042 55.6581 13.5373 47.785C15.6306 43.3734 19.2665 42.3313 23.8205 42.4598C32.6484 42.7031 41.2101 41.762 47.9034 42.6526C50.2722 42.9694 52.8338 44.8699 54.9731 47.831C59.5409 54.1662 58.9992 58.2611 58.9992 58.2611L47.5224 60.0377V60.0331Z" fill="#E9E8E8"/>
<path d="M11.0171 58.8258C11.5909 55.0843 12.151 51.0445 14.0699 47.707C14.9284 46.215 16.1174 44.9342 17.7149 44.241C19.9001 43.2954 22.3516 43.6029 24.6607 43.6259C30.1099 43.6764 35.5591 43.5111 41.0128 43.5937C42.1881 43.6121 43.3633 43.6442 44.5385 43.6993C45.3098 43.7361 45.6678 43.7407 46.4115 43.9748C47.6327 44.365 48.84 45.1867 49.8408 46.1003C53.2563 49.2266 55.1018 53.7438 55.7812 58.2519C55.8546 58.7248 56.4514 58.9864 56.8738 58.8717C57.3833 58.7339 57.567 58.2565 57.4935 57.7791C56.8325 53.3674 55.0467 49.02 51.9847 45.7238C50.8829 44.5394 49.5791 43.4606 48.1147 42.7582C46.4896 41.9778 44.869 41.9181 43.0924 41.863C37.5193 41.684 31.937 41.8722 26.3639 41.8539C24.8489 41.8539 23.334 41.8309 21.8236 41.7988C20.6163 41.7758 19.3997 41.8676 18.2337 42.189C16.3515 42.7077 14.7264 43.8233 13.5282 45.3566C10.6957 48.9833 9.99334 53.9366 9.31392 58.3483C9.24047 58.8212 9.43328 59.3032 9.93366 59.4409C10.356 59.5557 10.9528 59.2986 11.0263 58.8212L11.0171 58.8258Z" fill="#1D1E1D"/>
<path d="M21.6173 44.1355C26.1805 48.1524 33.2318 48.5334 38.8142 46.7338C40.4026 46.2243 41.9359 45.5173 43.3085 44.5716C44.2358 43.9381 43.359 42.414 42.4225 43.0567C37.9695 46.1141 31.7077 46.8394 26.6304 45.0536C25.2578 44.5716 23.954 43.8555 22.8568 42.8914C22.0121 42.1477 20.7635 43.3826 21.6127 44.1355H21.6173Z" fill="#1D1E1D"/>
<path d="M37.9374 1.7953C30.6795 0.973558 20.7085 0.79452 15.3327 2.27732C8.30435 4.2192 4.59964 9.09913 3.3326 16.0678C2.6394 19.8736 2.42822 23.1008 2.67612 26.98C3.24537 35.9319 8.73587 41.5601 17.5868 42.8547C27.5395 44.31 36.6015 44.9022 46.6552 44.7874C56.0157 44.6772 60.813 37.7039 61.7862 29.5554C62.6722 22.1322 63.3792 13.6944 57.4388 8.43348C52.4028 3.97589 45.0439 2.59867 37.942 1.7953H37.9374Z" fill="white"/>
<path d="M40.4761 2.33244C33.2136 1.5107 23.2471 1.32248 17.8714 2.76856C10.8476 4.66453 7.14749 9.43888 5.89423 16.2699C5.21021 20.0021 5.00363 23.1651 5.25612 26.9662C5.83914 35.7437 11.3388 41.2709 20.1897 42.5563C30.1424 43.9978 39.2045 44.5946 49.2582 44.4982C58.6186 44.4064 63.4068 37.5754 64.3616 29.5875C65.2339 22.3113 65.9271 14.0388 59.9775 8.86963C54.9369 4.49008 47.5734 3.12664 40.4761 2.32785V2.33244Z" fill="#E9E8E8"/>
<path d="M38.4052 0.670634C32.3638 -0.00879235 26.1434 -0.284236 20.0882 0.38601C17.421 0.679816 14.8273 1.21693 12.3804 2.35084C10.1034 3.4067 8.08351 4.98591 6.54103 6.9691C4.99855 8.95229 3.91973 11.3578 3.28162 13.8276C2.44152 17.0779 2.09262 20.5301 2.09721 23.8767C2.1018 26.7781 2.32216 29.7253 3.31375 32.4751C4.13549 34.7659 5.4163 36.8776 7.15159 38.5946C8.88689 40.3115 11.0216 41.5785 13.3123 42.437C16.2412 43.5342 19.3996 43.8188 22.48 44.1998C29.8343 45.1042 37.23 45.5449 44.6394 45.5495C47.6647 45.5495 50.5982 45.4715 53.4215 44.2733C55.6525 43.3276 57.6082 41.8218 59.1094 39.9213C60.6105 38.0207 61.7307 35.7162 62.4101 33.329C63.1584 30.7123 63.3925 27.9487 63.6083 25.2493C64.0581 19.5982 63.7322 13.442 59.8806 8.92934C55.804 4.1504 49.1383 2.29116 43.1796 1.31793C41.5912 1.05625 39.9936 0.854263 38.396 0.670634C37.891 0.610955 37.4595 1.14348 37.4595 1.60714C37.4595 2.16262 37.891 2.48856 38.396 2.54365C44.2997 3.21848 50.5844 4.21467 55.5929 7.63476C57.824 9.15887 59.6419 11.2109 60.6289 13.7496C61.6159 16.2883 61.8821 18.8132 61.8913 21.4207C61.9005 24.1705 61.6388 26.9433 61.267 29.6656C60.9548 31.9472 60.3121 34.2242 59.2471 36.2717C58.2371 38.209 56.8415 39.9764 55.0466 41.2388C53.1552 42.5701 50.9241 43.3551 48.6241 43.5801C46.9348 43.7408 45.2178 43.6811 43.5239 43.6719C41.8299 43.6627 40.012 43.6306 38.2583 43.5709C34.7326 43.4516 31.207 43.2266 27.6951 42.8961C24.1832 42.5655 20.7493 42.2396 17.3384 41.6061C15.043 41.1791 12.8211 40.4079 10.8425 39.1592C6.96797 36.7078 4.74147 32.5624 4.18599 28.0726C3.79119 24.9005 3.90596 21.6043 4.32371 18.4413C4.6772 15.7787 5.21431 13.0885 6.42167 10.6692C7.42704 8.64931 8.85934 6.83138 10.6956 5.50466C12.6696 4.07236 14.9604 3.17717 17.3384 2.68596C19.8862 2.16262 22.5075 2.00653 25.1013 1.94226C28.1404 1.86422 31.1794 1.95604 34.2139 2.16721C35.6095 2.26361 37.005 2.39215 38.4006 2.54824C38.9056 2.60333 39.3371 2.07539 39.3371 1.61173C39.3371 1.05625 38.9056 0.730314 38.4006 0.675225L38.4052 0.670634Z" fill="#1D1E1D"/>
<path d="M8.25878 19.3548C7.27178 26.5438 8.98412 33.6824 17.8947 35.3029C23.6882 36.3542 31.2583 36.8454 37.1252 37.2815C41.9776 37.6396 47.1697 36.9785 50.319 33.9028C52.7291 31.5523 53.6243 27.2554 53.9227 23.716C54.7765 13.5751 46.8025 9.90249 43.1758 8.98434C39.5308 8.06161 35.5231 7.60713 31.777 7.31791C26.3829 6.90016 20.1947 6.74866 15.7141 9.01189C14.7914 9.48014 9.29628 11.8398 8.25878 19.3594V19.3548Z" fill="#1D1E1D"/>
<path d="M25.9917 16.3631L24.418 16.2318L24.2866 17.8055L25.8604 17.9369L25.9917 16.3631Z" fill="white"/>
<path d="M25.4683 18.2686L23.8945 18.1373L23.7632 19.7111L25.3369 19.8424L25.4683 18.2686Z" fill="white"/>
<path d="M29.1587 16.6299L27.585 16.4985L27.4536 18.0723L29.0274 18.2036L29.1587 16.6299Z" fill="white"/>
<path d="M28.8794 18.556L27.3057 18.4247L27.1743 19.9984L28.7481 20.1297L28.8794 18.556Z" fill="white"/>
<path d="M25.8491 20.2354L24.2754 20.1041L24.1441 21.6779L25.7178 21.8092L25.8491 20.2354Z" fill="white"/>
<path d="M27.7622 20.3846L26.1885 20.2533L26.0572 21.827L27.6309 21.9584L27.7622 20.3846Z" fill="white"/>
<path d="M34.2446 17.0285L32.6709 16.8972L32.5396 18.471L34.1133 18.6023L34.2446 17.0285Z" fill="white"/>
<path d="M33.7612 18.8872L32.1875 18.7559L32.0562 20.3296L33.6299 20.4609L33.7612 18.8872Z" fill="white"/>
<path d="M37.647 17.3154L36.0732 17.1841L35.9419 18.7578L37.5157 18.8891L37.647 17.3154Z" fill="white"/>
<path d="M37.1685 19.174L35.5947 19.0427L35.4634 20.6165L37.0371 20.7478L37.1685 19.174Z" fill="white"/>
<path d="M34.44 20.8602L32.8662 20.7289L32.7349 22.3026L34.3086 22.4339L34.44 20.8602Z" fill="white"/>
<path d="M36.3481 21.0094L34.7744 20.8781L34.6431 22.4518L36.2168 22.5831L36.3481 21.0094Z" fill="white"/>
<path d="M2.71699 19.1988C3.41477 19.7588 4.28701 20.0067 5.15466 20.172C6.4676 20.4245 7.80809 20.5209 9.1394 20.5714C9.63061 20.5898 10.0989 20.1261 10.0759 19.6349C10.053 19.1116 9.66274 18.7167 9.1394 18.6984C8.4967 18.6754 7.84941 18.6387 7.20671 18.5744C6.91749 18.5469 6.62369 18.5148 6.33447 18.478C6.5181 18.501 6.17839 18.4551 6.11871 18.4459C5.98558 18.4229 5.85704 18.4046 5.72391 18.377C5.31074 18.299 4.90217 18.2072 4.50278 18.074C4.42473 18.0465 4.34669 18.0144 4.26865 17.9868C4.15847 17.9501 4.46605 18.0832 4.32833 18.0098C4.30078 17.996 4.26865 17.9822 4.2411 17.9685C4.17224 17.9363 4.10797 17.8996 4.0437 17.8629C3.97025 17.817 3.77744 17.6609 4.03911 17.8721C3.65808 17.5645 3.07965 17.4727 2.71239 17.8721C2.40023 18.2118 2.30382 18.8682 2.71239 19.1988H2.71699Z" fill="#1D1E1D"/>
<path d="M53.9446 24.423C55.5514 24.5837 57.1581 24.7535 58.774 24.7719C59.6004 24.7811 60.4267 24.7397 61.2439 24.6709C62.0151 24.602 62.7221 24.4413 63.2867 23.8675C64.1314 23.0044 62.8093 21.6777 61.96 22.5408C61.9187 22.5821 61.8774 22.628 61.8315 22.6647C61.96 22.5637 61.8085 22.6739 61.7764 22.6831C61.6387 22.7336 61.9095 22.6418 61.7672 22.6877C61.7121 22.706 61.6524 22.7244 61.5973 22.7382C61.3448 22.7979 61.1199 22.8025 60.7572 22.8254C59.9539 22.8759 59.1551 22.908 58.3517 22.8851C56.8781 22.8438 55.4136 22.6923 53.9492 22.5454C53.4442 22.4949 53.0127 23.0136 53.0127 23.4819C53.0127 24.0328 53.4442 24.3679 53.9492 24.4184L53.9446 24.423Z" fill="#1D1E1D"/>
<path d="M33.8242 57.9536C33.8197 57.9031 33.8105 57.8572 33.8013 57.8113C33.8013 57.6736 33.8013 57.5359 33.7783 57.4073C33.7141 56.9804 33.434 56.6361 33.1173 56.356C32.8327 56.1035 32.4929 55.9016 32.1211 55.8189C32.2313 55.7684 32.3414 55.7133 32.447 55.6537C32.773 55.47 33.131 55.2451 33.3376 54.9237C33.4249 54.786 33.4799 54.6391 33.5213 54.483C33.5947 54.3499 33.636 54.1984 33.6406 54.0423C33.6911 53.8311 33.7095 53.6154 33.6911 53.395C33.6223 52.6284 33.0851 51.9352 32.3736 51.6551C31.9191 51.4761 31.4187 51.3935 30.9275 51.3705C30.7531 51.3476 30.574 51.3292 30.3996 51.3062C29.9589 51.2557 29.5227 51.2098 29.082 51.1731C28.1134 51.0859 26.5847 51.0675 26.3322 51.2282C26.323 51.2282 26.1072 51.3062 26.1027 51.3062C26.0981 51.3062 26.0889 51.3062 26.0843 51.3062C26.0843 51.3062 25.8226 51.724 25.7997 51.8801C25.46 54.2305 25.4416 55.773 25.2121 58.1372C25.1478 58.8121 25.1983 59.0278 25.2029 59.4089C25.2029 59.5374 25.2947 59.8817 25.4554 60.0011C25.4691 60.0102 25.6252 60.1204 25.74 60.1617C26.144 60.2995 27.1034 60.327 28.0583 60.4051C28.9948 60.4831 29.9221 60.5336 30.8632 60.5887C31.3498 60.6162 31.7492 60.552 32.2221 60.4234C32.268 60.4096 32.3139 60.4142 32.3323 60.3821C32.3644 60.3959 32.4792 60.3362 32.548 60.2857C32.5756 60.2857 32.6031 60.2765 32.6352 60.2536C32.8005 60.1204 32.9245 60.0699 33.0484 59.9001C33.2596 59.6705 33.4203 59.3997 33.5213 59.1059C33.5488 59.0508 33.5809 58.9957 33.6085 58.9406C33.6728 58.8029 33.7875 58.6652 33.7646 58.5183C33.8105 58.3209 33.8564 58.1602 33.8334 57.9536H33.8242ZM26.8831 59.9781C26.8004 59.9689 26.7178 59.9643 26.6352 59.9552C26.6352 59.9414 26.6352 59.9276 26.6352 59.9138C26.6444 59.9138 26.6535 59.9138 26.6627 59.9093C26.727 59.9093 26.7959 59.9001 26.8601 59.9001C26.8601 59.9276 26.8647 59.9552 26.8785 59.9781H26.8831ZM33.2045 56.861C33.255 56.9253 33.3009 56.9896 33.3376 57.0584C33.3193 57.063 33.3009 57.0722 33.2825 57.086C33.2596 57.1043 33.2458 57.1365 33.2366 57.1686C33.2274 57.1824 33.2183 57.1961 33.2137 57.2145C33.2137 57.2329 33.2045 57.2512 33.1999 57.265C33.1999 57.265 33.1999 57.2604 33.1999 57.2558C33.1907 57.2237 33.1632 57.1915 33.1265 57.1686C33.2045 57.1089 33.1861 56.9941 33.1219 56.9391C33.1356 56.9299 33.1494 56.9207 33.1632 56.9115C33.1861 56.8931 33.1999 56.8748 33.2045 56.8518V56.861ZM32.8005 54.9008C32.8097 54.8411 32.7913 54.7768 32.7271 54.7401C32.6857 54.7171 32.6261 54.6988 32.5802 54.7263C32.5802 54.7263 32.571 54.7309 32.571 54.7355C32.548 54.7493 32.5297 54.7676 32.5205 54.786C32.4975 54.786 32.4792 54.7906 32.47 54.7952C32.4287 54.8044 32.3874 54.8136 32.346 54.8227C32.3277 54.8227 32.3093 54.8319 32.2909 54.8319C32.2864 54.7998 32.268 54.7676 32.245 54.7493L32.3093 54.7401C32.3644 54.7768 32.4333 54.7722 32.4883 54.7355C32.5021 54.7263 32.5159 54.7171 32.5297 54.708C32.6582 54.7034 32.7822 54.6942 32.9107 54.6896C32.9933 54.6896 33.0622 54.6391 33.0714 54.5565C33.0714 54.5473 33.0714 54.5427 33.0714 54.5335C33.0897 54.5243 33.1035 54.5197 33.1219 54.5106C33.0897 54.5381 33.0714 54.5748 33.0714 54.607C32.9979 54.7126 32.9107 54.809 32.8143 54.8962L32.8005 54.9008ZM32.5388 55.0982C32.5388 55.0982 32.5205 55.1119 32.5113 55.1211C32.5067 55.1119 32.4975 55.1028 32.4883 55.0936C32.5113 55.0936 32.5388 55.0844 32.5664 55.0798C32.5572 55.0844 32.548 55.0936 32.5388 55.0982ZM33.1907 57.3706C33.1907 57.3706 33.1907 57.3935 33.1999 57.4073C33.1907 57.4073 33.1815 57.4073 33.1724 57.4073C33.1815 57.3981 33.1861 57.3889 33.1953 57.3752L33.1907 57.3706ZM30.4133 56.7692C30.4133 56.7692 30.4409 56.7876 30.4455 56.7876C30.776 56.8105 31.0698 56.8656 31.3131 57.1089C31.5335 57.3247 31.6253 57.5359 31.7538 57.8113C31.7538 57.8205 31.7768 57.8526 31.7814 57.8618C31.7584 57.8893 31.7492 57.8802 31.7584 57.9261C31.8135 58.1235 31.7492 58.2474 31.7171 58.4494L31.7309 58.4815C31.6712 58.656 31.6482 58.7203 31.5427 58.8672C31.5381 58.8717 31.4968 58.8901 31.4922 58.8947C31.4233 58.9865 31.3544 59.0187 31.2672 59.1013C31.0239 59.2298 30.8127 59.34 30.5327 59.3308C29.9589 59.3171 29.4768 59.1105 29.2427 58.5871C29.1142 58.3025 29.0729 57.972 29.1371 57.6644C29.1509 57.6414 29.1601 57.6185 29.1601 57.5863C29.3207 57.5221 29.2198 57.2971 29.0637 57.3155C28.8479 57.1135 28.623 56.9207 28.398 56.7325C28.3659 56.7049 28.3292 56.7003 28.297 56.7049C28.2557 56.6636 28.2098 56.6223 28.1685 56.5856C28.1363 56.5534 28.095 56.5443 28.0537 56.5443C27.9894 56.4846 27.9252 56.4249 27.8655 56.3606C27.8379 56.3331 27.8058 56.3193 27.7691 56.3147C27.7324 56.278 27.6727 56.2642 27.613 56.2918C27.5212 56.3377 27.4156 56.3469 27.3146 56.3285C27.2182 56.278 27.1264 56.2137 27.0483 56.1449C27.03 56.1127 27.0116 56.0806 26.9933 56.0439C26.9703 55.9337 26.9657 55.8189 26.9749 55.7179C27.0483 55.6123 27.1172 55.5068 27.1907 55.4058C27.2412 55.4012 27.2871 55.392 27.333 55.3874C27.3835 55.3828 27.4202 55.3415 27.4386 55.3002C27.4799 55.3094 27.5212 55.3139 27.5625 55.3323C27.6084 55.3507 27.6727 55.3415 27.7094 55.3048C28.0537 54.9696 28.398 54.6299 28.7469 54.2948C28.8204 54.2213 28.802 54.1295 28.7469 54.079C28.7561 54.001 28.7377 53.923 28.7377 53.8403C28.724 53.5236 28.9535 53.2665 29.1876 53.0599C29.2014 53.0461 29.4401 52.9497 29.4539 52.9405C29.711 52.9176 29.812 52.9405 30.0002 52.9727C30.0231 52.9773 30.0461 52.9819 30.069 52.9773C30.0782 52.991 30.092 53.0048 30.1058 53.014C30.1563 53.0415 30.2068 53.0737 30.2573 53.1012C30.2848 53.1196 30.3215 53.1242 30.3537 53.1196C30.6016 53.3078 30.6199 53.7485 30.5694 54.0239C30.5235 54.2764 30.3904 54.5106 30.193 54.6667C29.9726 54.7585 29.7201 54.7768 29.4952 54.6988C29.4401 54.6804 29.3758 54.6988 29.3391 54.7401C29.2932 54.7126 29.2335 54.7034 29.183 54.7309C29.1647 54.7355 29.1417 54.7447 29.1233 54.7631C29.1004 54.7814 29.082 54.8044 29.0591 54.8227C28.7699 55.0523 28.5036 55.3093 28.2603 55.5894C28.2465 55.5756 28.2282 55.5618 28.2098 55.5481C28.1042 55.4792 27.9848 55.5618 27.9803 55.6628C27.9389 55.7501 28.0032 55.8694 28.0996 55.8786C28.1088 55.9016 28.1226 55.9199 28.1409 55.9383C28.2006 55.9888 28.2741 56.0255 28.3383 56.0668C28.4669 56.154 28.5954 56.2459 28.7194 56.3423C28.9673 56.5351 29.2014 56.7417 29.4217 56.9666C29.5273 57.0722 29.7247 57.0997 29.7247 56.9896C29.9543 56.8656 30.1563 56.7967 30.4133 56.7692ZM33.3055 57.6277C33.3239 57.7241 33.3376 57.8159 33.3422 57.9123C33.3376 57.9123 33.333 57.9215 33.3284 57.9261C33.3147 57.9261 33.2963 57.9261 33.2825 57.9261C33.3514 57.848 33.3284 57.7149 33.2412 57.6828C33.255 57.6736 33.2688 57.6644 33.2779 57.6552C33.2917 57.646 33.2963 57.6368 33.3055 57.6277ZM30.9505 52.2703C30.9505 52.2703 30.9734 52.2703 30.9826 52.2703C30.9734 52.2703 30.9596 52.2703 30.9505 52.2703ZM32.9061 54.2259C32.9061 54.2259 32.9015 54.203 32.8969 54.1938C32.9382 54.1938 32.9796 54.1938 33.0209 54.1938C33.0209 54.1984 33.0301 54.203 33.0301 54.2122C32.9887 54.2168 32.9474 54.2259 32.9061 54.2305V54.2259ZM26.1302 53.7669C26.1715 53.7669 26.2128 53.7623 26.2541 53.7577C26.3597 53.7485 26.4653 53.7393 26.5663 53.7301C26.7637 53.7118 26.9565 53.6888 27.1539 53.6705C27.4661 53.6429 27.7829 53.6246 28.095 53.6337C28.0583 53.6337 28.0262 53.6429 27.994 53.6429C27.8701 53.6521 27.7461 53.6613 27.6222 53.6705C27.1264 53.7072 26.6352 53.7485 26.1394 53.7852C26.1348 53.7852 26.1302 53.7852 26.1256 53.7852C26.1256 53.7761 26.1256 53.7669 26.1256 53.7577L26.1302 53.7669ZM26.1623 52.633C26.1623 52.633 26.1623 52.6284 26.1623 52.6238C26.1623 52.6238 26.1623 52.6238 26.1669 52.6238C26.1669 52.6284 26.1669 52.633 26.1577 52.6376V52.6284L26.1623 52.633ZM26.805 52.711C26.6949 52.7018 26.5801 52.7064 26.4699 52.6926C26.4699 52.688 26.4607 52.6835 26.4561 52.6789C26.828 52.688 27.1998 52.7018 27.5671 52.711C27.4202 52.7156 27.2733 52.7202 27.1264 52.7248C27.0208 52.7156 26.9106 52.711 26.805 52.7018V52.711ZM31.864 53.193C32.0385 53.1838 32.2129 53.1793 32.3873 53.1747C32.3873 53.1747 32.3874 53.1747 32.3965 53.1793C32.2221 53.1793 32.043 53.1793 31.8686 53.1884L31.864 53.193ZM32.2818 52.5825C32.2818 52.5825 32.2818 52.6146 32.2818 52.6284C32.2818 52.6421 32.2909 52.6559 32.2955 52.6651C32.1119 52.6789 31.9283 52.6972 31.7446 52.711C31.5656 52.6972 31.3866 52.688 31.2075 52.6789C31.2167 52.6605 31.2259 52.6421 31.2305 52.6238C31.5794 52.5962 31.9283 52.5825 32.2818 52.5825ZM26.6535 52.2749C26.6673 52.2978 26.6811 52.3208 26.7086 52.3346C26.548 52.3437 26.3827 52.3575 26.222 52.3713C26.222 52.3713 26.2174 52.3713 26.2128 52.3713C26.222 52.33 26.2266 52.2887 26.2358 52.2473C26.2496 52.2473 26.2587 52.2565 26.2771 52.2565C26.4056 52.2611 26.5296 52.2657 26.6581 52.2749H26.6535ZM26.2817 52.6651C26.2541 52.6789 26.2312 52.6972 26.2174 52.7202C26.2082 52.7385 26.1991 52.7615 26.1945 52.7799C26.1945 52.7799 26.1945 52.7799 26.1899 52.7799C26.1899 52.7156 26.1991 52.6467 26.2037 52.5825C26.2174 52.6192 26.245 52.6467 26.2817 52.6651ZM27.108 53.0278H27.1264C27.1264 53.0278 27.1723 53.0278 27.1907 53.0324C26.8555 53.0507 26.5158 53.0645 26.1807 53.0828C26.1807 53.0828 26.1761 53.0828 26.1715 53.0828C26.1715 53.0828 26.1715 53.0829 26.1715 53.0783C26.4837 53.0553 26.7959 53.0415 27.108 53.0278ZM26.1532 53.3767C26.8418 53.3445 27.535 53.3078 28.2236 53.2757C28.2465 53.2986 28.2741 53.3124 28.3016 53.317C28.297 53.3307 28.2878 53.3399 28.2832 53.3537C27.7829 53.317 27.2779 53.3629 26.7821 53.4134C26.5709 53.4363 26.3597 53.4547 26.144 53.4731C26.144 53.4409 26.144 53.4134 26.1486 53.3812L26.1532 53.3767ZM26.1118 54.0653C26.1348 54.079 26.1623 54.0882 26.1945 54.0836C26.3735 54.0699 26.5571 54.0561 26.7362 54.0423C26.525 54.0699 26.3138 54.0974 26.1072 54.1341C26.1072 54.1112 26.1072 54.0882 26.1072 54.0653H26.1118ZM30.6704 52.9589C30.6704 52.9589 30.6796 52.991 30.6888 53.0048C30.675 53.0048 30.6612 53.014 30.6521 53.0186C30.6337 53.0002 30.6199 52.9773 30.6016 52.9589C30.6245 52.9589 30.6475 52.9589 30.6704 52.9589ZM29.4952 55.0201C29.4952 55.0201 29.4952 55.0155 29.4998 55.011C29.5044 55.011 29.5136 55.011 29.5181 55.011C29.509 55.011 29.5044 55.011 29.4952 55.011V55.0201ZM32.5526 54.0928C32.5526 54.0928 32.5526 54.0974 32.5526 54.102C32.2955 54.1204 32.043 54.1433 31.786 54.1617C32.043 54.1341 32.2955 54.1112 32.5526 54.0928ZM31.2029 52.33C31.2029 52.33 31.1754 52.2978 31.157 52.2887C31.2626 52.2978 31.3682 52.3024 31.4738 52.3162C31.382 52.3208 31.2948 52.3254 31.2029 52.3346V52.33ZM30.3215 52.2749C29.991 52.2795 29.6605 52.2978 29.3299 52.3208C29.3253 52.2841 29.307 52.2473 29.2748 52.2198C29.2748 52.2198 29.2703 52.2198 29.2657 52.2152C29.6191 52.2244 29.968 52.2428 30.3215 52.2749ZM26.0889 54.4325C26.8142 54.3086 27.5487 54.2351 28.2832 54.2168C28.2327 54.2627 28.1868 54.3086 28.1363 54.3545C28.1088 54.3361 28.0767 54.3269 28.0353 54.3269C27.3835 54.3774 26.7362 54.4325 26.0843 54.483C26.0843 54.4647 26.0843 54.4509 26.0843 54.4325H26.0889ZM27.6635 54.6529C27.691 54.685 27.7278 54.7034 27.7783 54.6942C27.7507 54.7401 27.7461 54.786 27.7645 54.8273C27.714 54.8778 27.6635 54.9237 27.613 54.9742C27.6222 54.887 27.5579 54.7814 27.4431 54.7952C26.9933 54.8365 26.5388 54.8503 26.0889 54.8365C26.0797 54.8365 26.0705 54.8365 26.0613 54.8411C26.0613 54.8181 26.0613 54.7998 26.0613 54.7768C26.5939 54.7355 27.1264 54.6942 27.6635 54.6483V54.6529ZM31.9283 59.3538C31.9283 59.3538 31.8961 59.3675 31.8778 59.3721C31.8916 59.3538 31.9053 59.3308 31.9191 59.3125C31.9191 59.3262 31.9237 59.34 31.9283 59.3538ZM30.5419 59.8037C30.496 59.7853 30.4547 59.7623 30.4133 59.744C30.5052 59.7532 30.6016 59.7532 30.6934 59.7532C30.6429 59.7715 30.5924 59.7899 30.5419 59.8037ZM27.8563 56.7692C27.8563 56.7692 27.815 56.7692 27.7966 56.7692C27.7874 56.7692 27.7829 56.7692 27.7737 56.7692C27.7737 56.76 27.7691 56.7508 27.7645 56.7417C27.7829 56.7417 27.8058 56.7417 27.8242 56.7417C27.8334 56.7508 27.8471 56.76 27.8563 56.7692ZM26.0292 55.3369C26.0338 55.369 26.0522 55.392 26.0705 55.4103C26.0567 55.4103 26.0384 55.4103 26.02 55.4103C26.02 55.3874 26.02 55.3644 26.0246 55.3369H26.0292ZM28.7699 58.4586C28.7699 58.4586 28.7194 58.4219 28.6826 58.4173C28.6735 58.4173 28.6689 58.4173 28.6597 58.4173C28.6964 58.3943 28.7285 58.3714 28.7653 58.3438C28.7653 58.3805 28.7653 58.4173 28.7699 58.4586ZM27.512 57.5772C27.6451 57.5542 27.8242 57.545 27.9573 57.4762C27.9527 57.4991 27.9527 57.5267 27.9573 57.5496C27.8058 57.5588 27.6589 57.5634 27.5074 57.5726L27.512 57.5772ZM28.8295 57.6139C28.8295 57.6139 28.8295 57.6185 28.8295 57.6231C28.8112 57.6552 28.7974 57.6873 28.779 57.7195C28.779 57.6873 28.7699 57.6598 28.7515 57.6368C28.7745 57.6231 28.7928 57.6139 28.8158 57.6001C28.8204 57.6047 28.825 57.6093 28.8295 57.6139ZM26.3919 55.4976C26.3919 55.4976 26.3919 55.4884 26.3919 55.4838C26.3919 55.4838 26.3919 55.493 26.3919 55.4976ZM26.5571 56.0714C26.5571 56.0714 26.5985 56.0714 26.6168 56.0668C26.6214 56.099 26.6306 56.1311 26.6398 56.1586C26.6122 56.1586 26.5847 56.1678 26.5571 56.1678C26.5709 56.1357 26.5709 56.099 26.5571 56.0668V56.0714ZM26.4194 56.7646C26.4194 56.7646 26.4286 56.7325 26.4286 56.7187C26.6581 56.682 26.8877 56.6636 27.1172 56.6682C26.8831 56.6866 26.649 56.7233 26.4148 56.7646H26.4194ZM26.4102 55.4563C26.4102 55.4563 26.4102 55.4471 26.4148 55.4471L26.4102 55.4563ZM25.9466 56.4754C25.9466 56.4754 25.9879 56.4938 26.0108 56.4938C26.0108 56.4938 26.0154 56.4938 26.02 56.4938C25.9925 56.4983 25.9695 56.5029 25.942 56.5121C25.942 56.4983 25.942 56.4892 25.942 56.4754H25.9466ZM25.9603 57.1732C26.0017 57.164 26.043 57.1548 26.0843 57.141C26.5112 57.0906 26.9382 57.0355 27.3651 56.985C27.3789 57.0033 27.3926 57.0171 27.411 57.0309C27.4294 57.0768 27.4661 57.1089 27.5304 57.1089C27.5395 57.1089 27.5533 57.1089 27.5625 57.1089C27.5625 57.1135 27.5625 57.1181 27.5625 57.1273C27.3789 57.1319 27.1952 57.141 27.0116 57.1548C27.0116 57.1548 27.0116 57.1548 27.007 57.1548C26.6627 57.1824 26.3184 57.2237 25.9741 57.2834C25.919 57.2925 25.8869 57.3247 25.8731 57.3614C25.8777 57.2971 25.8823 57.2329 25.8869 57.1732C25.9098 57.1778 25.9328 57.1824 25.9603 57.1732ZM25.841 57.6965C26.0567 57.6368 26.2725 57.5863 26.4929 57.545C26.4837 57.5863 26.4929 57.6323 26.5158 57.669C26.2909 57.6965 26.0659 57.7241 25.841 57.7608C25.841 57.7424 25.841 57.7195 25.8456 57.7011L25.841 57.6965ZM27.4661 57.949C27.5258 57.9398 27.5579 57.9077 27.5717 57.8664C27.6865 57.8572 27.8012 57.8526 27.916 57.848C27.9298 57.8664 27.9435 57.8847 27.9665 57.8939C27.6038 57.9352 27.2457 57.9812 26.8831 58.0316C27.0759 57.9995 27.2687 57.972 27.4661 57.949ZM28.8892 58.9819C28.8892 58.9131 28.8479 58.8488 28.7699 58.8396C28.7607 58.7845 28.7285 58.7478 28.6872 58.7294C28.7056 58.7203 28.7194 58.7111 28.7377 58.7019C28.7653 58.6881 28.7836 58.6652 28.7974 58.6422C28.8204 58.7708 28.8617 58.8901 28.9305 58.9957C28.9214 58.9911 28.9076 58.9819 28.8938 58.9819H28.8892ZM27.4753 56.6728H27.4294C27.4431 56.6728 27.4569 56.6728 27.4707 56.6682C27.4707 56.6682 27.4707 56.6682 27.4753 56.6682V56.6728ZM27.2228 56.6544C27.2228 56.6544 27.2366 56.6544 27.2457 56.6498H27.2549C27.2457 56.6498 27.232 56.6498 27.2228 56.6498V56.6544ZM26.0246 55.7042C26.0246 55.7317 26.0384 55.7547 26.0567 55.7776C26.0338 55.7776 26.0154 55.7776 25.9971 55.7914C25.9971 55.7638 25.9971 55.7317 26.0017 55.7042C26.0108 55.7042 26.0154 55.7042 26.0246 55.7042ZM29.0453 59.2252C29.004 59.2298 28.9627 59.2344 28.9214 59.239C28.9673 59.1977 28.9902 59.1288 28.9764 59.0737C29.0224 59.1288 29.0683 59.1839 29.1233 59.239C29.1004 59.2298 29.0728 59.2252 29.0453 59.2298V59.2252ZM26.144 55.1624C26.0889 55.1624 26.0476 55.2175 26.0292 55.268C26.0292 55.2221 26.0338 55.1762 26.0384 55.1303C26.0476 55.1303 26.0522 55.1349 26.0613 55.1349C26.2128 55.1349 26.3643 55.1349 26.5158 55.1349C26.3919 55.1441 26.2679 55.1487 26.144 55.1579V55.1624ZM27.1861 58.9039C27.3651 58.8717 27.3605 58.858 27.5396 58.8258C27.6268 58.8121 27.7094 58.7983 27.7966 58.7845C27.8379 58.7753 27.8839 58.7708 27.9252 58.7616L27.9803 58.7524C27.9986 58.7937 28.0308 58.8304 28.0767 58.835C28.0767 58.8442 28.0813 58.8534 28.0858 58.8626C27.6405 58.8763 27.3743 58.8993 26.9336 58.9498C27.0208 58.936 27.108 58.9177 27.1952 58.9039H27.1861ZM29.1463 59.4685C29.2381 59.4364 29.2381 59.3767 29.2014 59.3033C29.2978 59.3905 29.4217 59.4364 29.5227 59.5144C29.3942 59.4869 29.2657 59.4777 29.1509 59.4685H29.1463ZM25.9879 58.4219C26.2587 58.3989 26.3001 58.5412 26.5755 58.5229C26.3873 58.5366 26.4286 58.3943 26.2404 58.4127C26.1072 58.4264 26.0981 58.5688 26.1669 58.6514C26.1486 58.6514 26.1256 58.6606 26.1072 58.6606C25.9558 58.6881 25.9649 58.8809 26.0705 58.936C26.0246 58.9452 25.9787 58.9498 25.9328 58.959C25.9512 58.7799 25.9695 58.6009 25.9925 58.4173L25.9879 58.4219ZM28.3751 59.2206C28.3108 59.2574 28.3062 59.2803 28.3154 59.34C28.3062 59.3492 28.297 59.363 28.2924 59.3721C28.2832 59.3721 28.2787 59.3721 28.2695 59.3721C28.2557 59.3721 28.2419 59.3721 28.2327 59.3721C28.2557 59.3079 28.2144 59.2665 28.1501 59.2252C28.2236 59.2252 28.3016 59.2252 28.3751 59.2252V59.2206ZM29.766 55.3736C29.766 55.3736 29.766 55.3553 29.766 55.3507C29.766 55.3231 29.7523 55.3048 29.7339 55.2864C29.7615 55.2864 29.7844 55.2864 29.812 55.2864C29.8349 55.3002 29.867 55.3094 29.8992 55.3002C30.4363 55.2221 30.978 55.1487 31.5151 55.0844C31.5151 55.0936 31.5151 55.1028 31.5151 55.112C30.9321 55.1992 30.3445 55.2864 29.7615 55.3782L29.766 55.3736ZM31.8778 54.4555C31.8365 54.4555 31.8089 54.4784 31.7906 54.5014C31.4463 54.5427 31.1019 54.5794 30.7576 54.6207C30.7852 54.5932 30.8081 54.5611 30.8311 54.5289C30.8403 54.5289 30.8449 54.5289 30.8541 54.5289C31.2902 54.4922 31.7263 54.4601 32.1578 54.4233C32.1578 54.4233 32.1578 54.4279 32.1578 54.4325C32.066 54.4417 31.9696 54.4463 31.8778 54.4555ZM25.7905 54.4647C25.7905 54.4647 25.7905 54.5014 25.7905 54.5197C25.7905 54.5014 25.7905 54.483 25.7905 54.4647ZM25.9098 59.2298C25.9098 59.2298 25.9328 59.2298 25.942 59.2252C25.9603 59.2252 25.9787 59.2298 26.0017 59.2252C26.6122 59.1334 26.9749 59.2711 27.59 59.239C27.0392 59.2941 26.7362 59.1518 26.1853 59.2069C26.0935 59.2161 26.0567 59.2895 26.0705 59.363C26.02 59.3721 25.9741 59.3813 25.9236 59.3951C25.9098 59.3951 25.8961 59.4043 25.8869 59.4135C25.8961 59.3538 25.9007 59.2941 25.9098 59.2344V59.2298ZM32.2175 57.646C32.1899 57.6644 32.1716 57.6873 32.1578 57.7149C32.1395 57.6736 32.1211 57.6323 32.1027 57.5909C32.0798 57.545 32.0568 57.4991 32.0339 57.4532H32.043C32.0522 57.4532 32.066 57.4486 32.0752 57.444C32.0614 57.5313 32.1257 57.6277 32.245 57.6185C32.2496 57.6185 32.2542 57.6185 32.2588 57.6185C32.245 57.6277 32.2267 57.6368 32.2129 57.646H32.2175ZM31.9925 57.1594C31.9558 57.1686 31.9283 57.1915 31.9099 57.2191C31.8824 57.1732 31.8594 57.1273 31.8273 57.086C31.8502 57.0814 31.8778 57.0768 31.9007 57.0676C31.9145 57.1089 31.9466 57.1456 31.988 57.1594H31.9925ZM29.9359 56.4387C29.9451 56.4111 29.9497 56.379 29.9405 56.3469C30.294 56.3239 30.6429 56.3009 30.9964 56.2688C31.0101 56.3239 31.0514 56.3652 31.1203 56.3652C31.2029 56.3652 31.2902 56.3652 31.3728 56.3652C31.3315 56.3836 31.2902 56.4065 31.2534 56.4249C30.8219 56.3055 30.3583 56.3101 29.9359 56.4433V56.4387ZM25.7721 54.7447C25.6987 55.8235 25.6206 56.9069 25.515 57.9812C25.4554 58.6055 25.7675 58.9039 25.6849 59.5236C25.6711 59.5145 25.6711 59.5236 25.6528 59.5236C25.6757 58.1235 25.6482 56.4478 25.7675 54.7401L25.7721 54.7447ZM25.8548 59.5695C25.8548 59.5695 25.8869 59.5971 25.9144 59.6017C25.8961 59.6017 25.8731 59.6017 25.8548 59.6017C25.8548 59.5925 25.8548 59.5787 25.8548 59.5695ZM25.9787 59.6017C26.0292 59.5879 26.0797 59.5787 26.1302 59.5695C26.1302 59.5833 26.1348 59.5971 26.1394 59.6063C26.0751 59.6063 26.0108 59.6017 25.9466 59.6017C25.9558 59.6017 25.9649 59.6017 25.9741 59.6017H25.9787ZM29.8579 59.9965C29.8808 60.0011 29.9634 60.0194 30.0139 60.0332C29.9543 60.0332 29.8946 60.024 29.8349 60.0194C29.8441 60.0148 29.8487 60.0057 29.8533 59.9965H29.8579ZM33.2688 53.597C33.2825 53.5603 33.2825 53.519 33.2688 53.4777C33.2688 53.4685 33.2596 53.4593 33.255 53.4501C33.2734 53.4409 33.2871 53.4317 33.3009 53.418C33.3009 53.4868 33.3055 53.5557 33.3009 53.6246C33.2917 53.6108 33.278 53.6016 33.2642 53.597H33.2688ZM33.2596 53.1838C33.2596 53.1838 33.2596 53.1701 33.2596 53.1609C33.2596 53.1701 33.2596 53.1793 33.2596 53.1884C33.2596 53.1884 33.255 53.1884 33.2504 53.1884L33.2596 53.1838ZM33.177 53.014C33.1219 52.9956 33.0668 52.9819 33.0117 52.9681C33.0117 52.9543 33.0117 52.9451 33.0025 52.9359C33.0025 52.9359 33.0025 52.9359 33.0025 52.9314C33.0668 52.9038 33.1035 52.8212 33.0851 52.7523C33.0897 52.7431 33.0943 52.7294 33.0943 52.7202C33.1586 52.8304 33.2091 52.9497 33.2458 53.0737C33.232 53.0507 33.2091 53.0324 33.177 53.0232V53.014ZM32.9245 52.5228C32.9015 52.4493 32.8326 52.4172 32.7592 52.4218C32.7454 52.4218 32.7317 52.4218 32.7225 52.4218C32.7225 52.4218 32.7317 52.4172 32.7362 52.4126C32.7638 52.3897 32.7822 52.3621 32.7867 52.3346C32.8326 52.3759 32.8786 52.4126 32.9199 52.4585C32.9382 52.4815 32.952 52.5044 32.9704 52.5228C32.9566 52.5228 32.9428 52.5228 32.9291 52.5228H32.9245ZM32.5205 52.1418C32.4929 52.1418 32.4654 52.1326 32.4378 52.1326C32.4378 52.1142 32.4287 52.1004 32.4149 52.0867C32.4516 52.105 32.4838 52.1234 32.5205 52.1463V52.1418ZM29.5916 51.8434C29.5641 51.8479 29.5457 51.8617 29.5319 51.8755C29.5319 51.8617 29.5319 51.8479 29.5273 51.8342C29.5273 51.8342 29.5319 51.8342 29.5365 51.8342C29.5549 51.8342 29.5732 51.8388 29.5916 51.8434ZM32.5893 56.379C32.5893 56.379 32.5802 56.379 32.5756 56.379C32.5756 56.3514 32.5664 56.3239 32.5526 56.3009C32.5893 56.3193 32.6215 56.3423 32.6536 56.3652C32.6307 56.3652 32.6123 56.3652 32.5847 56.3744L32.5893 56.379ZM32.4011 56.2321C32.3277 56.2459 32.2588 56.2596 32.1854 56.2734C32.2129 56.2367 32.2175 56.1908 32.1991 56.1495C32.2726 56.1724 32.3414 56.2 32.4103 56.2367C32.4103 56.2367 32.4011 56.2367 32.3965 56.2367L32.4011 56.2321ZM32.1578 55.4333C32.1578 55.4333 32.1486 55.4149 32.144 55.4058C32.1578 55.4058 32.1716 55.4012 32.1808 55.3966C32.2129 55.3966 32.2404 55.3966 32.268 55.3736C32.3047 55.3644 32.3369 55.3553 32.3736 55.3461C32.3001 55.3874 32.2267 55.4287 32.1532 55.4654C32.1532 55.4517 32.1532 55.4425 32.1532 55.4287L32.1578 55.4333ZM27.3376 51.6368C27.0162 51.6322 26.6444 51.8158 26.3184 51.8204C26.3184 51.802 26.3276 51.7837 26.3276 51.7653C26.6489 51.7837 27.0208 51.6138 27.3421 51.6368C27.3421 51.6368 27.3376 51.6368 27.333 51.6368H27.3376ZM31.382 60.2857C31.382 60.2857 31.3912 60.2857 31.4003 60.2857C31.4141 60.2857 31.4279 60.2857 31.4417 60.2857C31.4417 60.2857 31.4508 60.2857 31.4554 60.2857C31.5932 60.2765 31.7263 60.2536 31.8548 60.2214C31.8548 60.2352 31.8548 60.2536 31.8548 60.2673C31.6942 60.2903 31.5335 60.3041 31.3728 60.3086C31.3728 60.3041 31.3728 60.2949 31.3774 60.2903L31.382 60.2857ZM33.0209 56.6636C32.9979 56.6682 32.9704 56.6728 32.9474 56.6774C32.9291 56.6039 32.8694 56.5443 32.7822 56.5626C32.7959 56.5259 32.7959 56.4938 32.7822 56.4616C32.7867 56.4616 32.7913 56.4708 32.7959 56.4754C32.8694 56.5351 32.9474 56.5993 33.0209 56.6682V56.6636ZM30.5602 51.6276C30.4914 51.6276 30.4225 51.6368 30.3537 51.6414C30.1287 51.6 29.9038 51.5725 29.6788 51.5541C28.8571 51.4486 28.0262 51.3843 27.1998 51.3292C28.3246 51.3889 29.4447 51.4853 30.5602 51.623V51.6276ZM27.8471 60.0883C28.0629 60.0975 28.2832 60.1067 28.499 60.1204C28.499 60.1296 28.499 60.1388 28.499 60.148C28.2787 60.1296 28.0629 60.1112 27.8425 60.0929L27.8471 60.0883Z" fill="#DC1645"/>
<path d="M0.830656 55.9107C1.90029 56.7921 3.37391 57.2236 4.65932 57.6597C6.50479 58.2841 8.38239 58.8074 10.2738 59.2665C14.8783 60.382 19.6205 60.7539 24.3351 61.0156C29.7797 61.3185 35.2197 61.6307 40.6597 61.1257C44.7776 60.7447 48.8955 60.3315 52.9766 59.6567C55.2766 59.2757 57.5765 58.812 59.8168 58.1509C61.6669 57.6046 63.5261 56.9298 65.1558 55.8831C65.9592 55.369 65.2155 54.0744 64.4029 54.5977C61.3685 56.5442 57.5765 57.3108 54.083 57.9581C50.0937 58.6972 46.0538 59.1288 42.0186 59.5098C39.659 59.7347 37.3085 59.9092 34.9397 59.923C32.1899 59.9367 29.44 59.8036 26.6902 59.6567C21.8286 59.395 16.9119 59.1839 12.1376 58.1647C10.1039 57.7332 8.08858 57.1869 6.10539 56.5626C5.18725 56.2733 4.2737 55.9658 3.3831 55.6077C3.08011 55.4883 2.78171 55.3552 2.4925 55.2083C2.36396 55.144 2.24001 55.0798 2.12065 55.0063C2.06556 54.9742 1.75798 54.7492 1.88652 54.8594C1.15201 54.2534 0.09155 55.3047 0.830656 55.9153V55.9107Z" fill="#1D1E1D"/>
<path d="M14.4514 57.21C12.8539 56.6867 11.8577 57.1044 10.3932 57.917C9.54855 58.3852 9.71382 59.4227 10.2739 60.0149C10.6687 60.4327 11.3757 60.2353 11.9679 60.1067C12.1285 60.0746 12.0551 60.0562 12.2158 60.0792C12.4728 60.1205 12.505 60.3684 12.707 60.5291C13.3634 61.0524 13.9465 61.0708 14.7361 60.7862C15.5257 60.5015 15.7736 59.4686 15.5578 58.6561C15.4017 58.0685 15.2319 57.7838 14.759 57.3982L14.4514 57.2054V57.21Z" fill="white"/>
<path d="M14.6993 56.3101C13.9143 56.0576 13.1201 55.9888 12.3075 56.1265C11.6143 56.2413 10.9533 56.558 10.3335 56.884C9.65868 57.242 9.04811 57.6828 8.9058 58.4907C8.76349 59.2987 9.02516 59.9965 9.51637 60.5841C10.104 61.2865 11.0083 61.2589 11.8255 61.0982C11.954 61.0707 12.0826 61.0478 12.2065 61.0156C12.4774 60.9468 12.1468 61.0615 11.954 60.9881L11.8485 60.933C11.775 60.8917 11.7153 60.8366 11.674 60.7585C11.6832 60.7585 11.9724 61.1487 11.8944 61.0477C11.9403 61.1028 11.977 61.1487 12.0321 61.1947C12.2111 61.3599 12.4315 61.5068 12.6518 61.617C13.3909 61.9843 14.2081 61.9751 14.9747 61.6905C15.7414 61.4058 16.2326 60.832 16.4484 60.0699C16.6641 59.3079 16.5356 58.4402 16.1959 57.7011C15.9296 57.1227 15.443 56.7279 14.9151 56.3973C14.4973 56.1357 13.8638 56.2964 13.6342 56.7325C13.3909 57.1961 13.5287 57.7378 13.9694 58.0133C14.0015 58.0316 14.2632 58.2107 14.2724 58.2015C14.2586 58.2153 14.0474 58.0041 14.2127 58.1602C14.254 58.2015 14.2999 58.2428 14.3458 58.2841C14.3688 58.3071 14.4606 58.376 14.4606 58.4081C14.3871 58.3071 14.3733 58.2887 14.4101 58.3438C14.4284 58.3668 14.4468 58.3943 14.4606 58.4219C14.4881 58.4678 14.5111 58.5137 14.5386 58.5596L14.5524 58.5871C14.5937 58.6789 14.5891 58.6652 14.534 58.5458C14.5937 58.6055 14.6121 58.7845 14.635 58.8626C14.6488 58.9177 14.6626 58.9773 14.6763 59.037C14.7222 59.2161 14.6763 59.0049 14.6763 58.9911C14.7268 59.0829 14.6855 59.3079 14.6809 59.4089C14.6809 59.5282 14.7177 59.441 14.6901 59.3675C14.7039 59.4043 14.6626 59.4961 14.6534 59.5374C14.6442 59.5695 14.6304 59.6843 14.6029 59.6981C14.6442 59.6705 14.6809 59.5466 14.6212 59.6568C14.6075 59.6751 14.5478 59.8266 14.5248 59.8266C14.5203 59.8266 14.6855 59.6568 14.5524 59.7899C14.5524 59.7899 14.4698 59.8817 14.4606 59.8817C14.5707 59.8037 14.5799 59.7945 14.4973 59.8542C14.4698 59.8725 14.4422 59.8909 14.4147 59.9047C14.3504 59.9781 14.635 59.8358 14.4009 59.9047C14.3458 59.923 14.2907 59.9414 14.231 59.9597C14.1484 59.9827 14.0704 60.0011 13.9877 60.0194C13.928 60.0332 13.8225 60.0194 14.0061 60.0194C13.9556 60.0194 13.9051 60.0286 13.8546 60.0286C13.7949 60.0286 13.5792 59.9873 13.8133 60.0378C13.7674 60.0286 13.7169 60.0194 13.671 60.0057C13.5883 59.9827 13.4736 59.9184 13.6113 59.9919C13.4965 59.9322 13.3496 59.8633 13.2532 59.7715C13.3772 59.8909 13.2991 59.7899 13.2762 59.7715C13.4414 59.946 13.3083 59.8083 13.2762 59.7623C12.9961 59.3859 12.6335 59.1426 12.1468 59.1334C11.8944 59.1288 11.6235 59.2298 11.3802 59.2757C11.3159 59.2895 11.2517 59.2987 11.1874 59.3125C11.0083 59.3492 11.169 59.3125 11.2058 59.3125C11.1323 59.317 11.0543 59.3262 10.9808 59.3262C10.9165 59.3262 10.7054 59.2895 10.9441 59.3308C10.8798 59.3171 10.8109 59.2665 10.9762 59.363C10.8064 59.2665 11.0267 59.4777 10.9716 59.3721C10.9487 59.3308 10.8798 59.2987 10.8614 59.2528C10.9074 59.3905 10.9349 59.3584 10.8936 59.2849C10.8614 59.2298 10.8293 59.1701 10.7972 59.1151C10.7237 58.9865 10.8109 59.161 10.8155 59.161C10.8064 59.161 10.7834 59.06 10.7742 59.037C10.765 58.9957 10.7513 58.9544 10.7467 58.9131C10.7605 59.0462 10.765 59.0783 10.7605 59.0049C10.765 58.959 10.7605 58.8947 10.7605 58.8488C10.7513 58.6698 10.7696 58.9131 10.7467 58.9177C10.7559 58.9177 10.7788 58.7386 10.7972 58.7432C10.8247 58.7478 10.6686 58.9498 10.7834 58.7983C10.889 58.6652 10.7467 58.8167 10.7467 58.835C10.7467 58.7983 10.9716 58.656 10.7605 58.7983C10.8798 58.7157 11.0129 58.6514 11.1415 58.5825C11.4261 58.431 11.7153 58.2795 12.0091 58.151C11.8117 58.2336 12.0596 58.1326 12.0872 58.1235C12.1606 58.0959 12.2341 58.073 12.3121 58.0454C12.4361 58.0087 12.56 57.972 12.684 57.949C12.7574 57.9352 12.8309 57.9215 12.9089 57.9077C12.7436 57.9306 12.8722 57.9169 12.964 57.9077C13.1063 57.8985 13.2532 57.9031 13.3955 57.9077C13.446 57.9077 13.6251 57.9306 13.4323 57.9077C13.5195 57.9215 13.6021 57.9352 13.6847 57.9536C13.8684 57.9903 14.0474 58.0454 14.2264 58.1005C14.6947 58.2474 15.2685 57.9261 15.3787 57.444C15.4935 56.9299 15.2226 56.4524 14.7222 56.2918L14.6993 56.3101Z" fill="#1D1E1D"/>
<path d="M40.8206 58.1325C40.6737 58.1188 40.5268 58.1188 40.3799 58.1234C39.7555 58.1509 39.1358 58.2886 38.5757 58.5687C37.9697 58.8716 36.6476 59.8816 36.7945 60.8273C36.8312 61.066 37.0424 61.3828 37.2444 61.5159C37.6254 61.7638 38.1029 61.8556 38.5482 61.7638C38.7639 61.7179 38.9751 61.6353 39.1955 61.6536C39.4571 61.6766 39.6775 61.8418 39.907 61.9704C40.5314 62.3239 41.3072 62.434 41.9866 62.2045C42.565 62.0071 43.0103 61.0522 42.8726 60.4738C42.7624 60.0193 42.5788 59.5832 42.3355 59.1838C42.1243 58.8395 41.8627 58.509 41.5 58.3253C41.2888 58.2198 41.0593 58.1647 40.8206 58.1463V58.1325Z" fill="white"/>
<path d="M40.8203 57.1961C39.3926 57.0997 38.0199 57.6276 36.9687 58.5733C36.5142 58.9865 36.1056 59.5098 35.9266 60.1066C35.7108 60.8365 35.9541 61.6307 36.5188 62.1357C37.1753 62.7233 38.1255 62.8335 38.9565 62.6269C38.9794 62.6223 39.1998 62.5672 39.085 62.5856C39.0024 62.5994 39.0758 62.5718 39.1355 62.5948C38.984 62.5305 39.264 62.6774 39.264 62.6728C39.3191 62.7049 39.3788 62.7417 39.4339 62.7738C39.7874 62.9712 40.1776 63.1227 40.5816 63.1916C41.3758 63.3293 42.248 63.2558 42.8907 62.7325C43.3635 62.3469 43.6941 61.7271 43.7905 61.1257C43.9328 60.2489 43.5609 59.3445 43.0927 58.6192C42.8494 58.2428 42.5694 57.9122 42.2067 57.6506C41.7935 57.3522 41.3207 57.2466 40.8203 57.1915C40.3199 57.1364 39.8608 57.6597 39.8838 58.128C39.9067 58.6789 40.2969 59.0094 40.8203 59.0645C40.6917 59.0507 40.8524 59.0737 40.8708 59.0783C40.9351 59.0966 40.9993 59.1104 41.0636 59.1334C40.9305 59.0783 41.2335 59.2481 41.1646 59.1976C41.0865 59.138 41.2289 59.2619 41.2426 59.2757C41.2885 59.3216 41.3299 59.3675 41.3712 59.4134C41.44 59.496 41.3804 59.4272 41.3712 59.4088C41.4171 59.4731 41.4584 59.5373 41.4997 59.6062C41.6237 59.8082 41.7522 60.0469 41.8119 60.1984C41.8624 60.3361 41.8991 60.4739 41.945 60.6116C41.968 60.6804 41.968 60.8319 41.9588 60.5978C41.9588 60.6437 41.9588 60.6896 41.9588 60.7355C41.968 60.8962 41.9588 60.7447 41.968 60.708C41.9588 60.7585 41.9496 60.809 41.9358 60.8595C41.9221 60.91 41.9037 60.9605 41.8899 61.011C41.8991 60.9742 41.9726 60.8503 41.8899 61.011C41.8486 61.0936 41.7889 61.1716 41.7476 61.2497C41.6971 61.3553 41.8486 61.1854 41.7476 61.2405C41.7017 61.268 41.6512 61.3369 41.6145 61.369C41.6191 61.3644 41.7476 61.2726 41.6604 61.3231C41.5502 61.392 41.8486 61.2818 41.6879 61.314C41.5778 61.3369 41.4676 61.3782 41.3574 61.392C41.4997 61.3736 41.3344 61.3874 41.3161 61.3874C41.2518 61.3874 41.183 61.3874 41.1187 61.3874C41.1003 61.3874 40.9351 61.3736 41.0774 61.3874C40.9947 61.3782 40.9167 61.3599 40.8387 61.3369C40.7285 61.3094 40.6183 61.2772 40.5127 61.2313C40.6275 61.2818 40.4806 61.213 40.4668 61.2038C40.4117 61.1716 40.352 61.1395 40.2969 61.1074C40.0307 60.9513 39.7552 60.7952 39.4477 60.7493C39.0666 60.6896 38.7269 60.7631 38.3551 60.8503C38.2357 60.8778 38.3321 60.8595 38.3551 60.8595C38.2908 60.8687 38.2265 60.8641 38.1623 60.8641C37.9832 60.8641 38.0704 60.8595 38.1209 60.8641C38.0429 60.8503 37.9603 60.8273 37.8868 60.8044C37.7399 60.7539 37.9786 60.8595 37.8455 60.786C37.8042 60.7631 37.7583 60.7401 37.7216 60.7126C37.8914 60.8319 37.7353 60.7263 37.7307 60.6988L37.772 60.7447L37.7261 60.6667C37.6481 60.4188 37.7766 60.9054 37.7261 60.6988C37.7261 60.685 37.7032 60.5473 37.717 60.6896C37.7307 60.8227 37.7307 60.6575 37.7399 60.6116C37.7675 60.4647 37.7399 60.5932 37.7216 60.6345C37.7445 60.5886 37.7629 60.5473 37.7904 60.5014C37.8363 60.4234 37.8868 60.3499 37.9373 60.2765C37.8363 60.3683 38.0154 60.1663 37.9373 60.2765C37.9649 60.2535 37.9924 60.2168 38.0154 60.1846C38.098 60.0974 38.1806 60.0102 38.2724 59.9276C38.3643 59.8449 38.4515 59.7715 38.5433 59.698C38.3826 59.8266 38.6305 59.6429 38.6764 59.6108C38.8279 59.5098 38.9886 59.4134 39.1584 59.3354C39.6497 59.115 40.2419 59.0324 40.8295 59.0691C41.3207 59.1012 41.7889 58.6146 41.766 58.1326C41.743 57.5955 41.3528 57.2282 40.8295 57.1961H40.8203Z" fill="#1D1E1D"/>
</g>
<defs>
<clipPath id="clip0_93_1204">
<rect width="65" height="63.2555" fill="white" transform="translate(0.5)"/>
</clipPath>
</defs>
</svg>
