<svg width="40" height="40" viewBox="0 0 40 40" fill="none" xmlns="http://www.w3.org/2000/svg">
<g clip-path="url(#clip0_30_12)">
<path d="M15.5 32C14.1667 32.1666 10.9 34 8.5 40H34.5C34.5 38.5 33.1 35.1 27.5 33.5C28.6667 33.3333 31.3 32 32.5 28C33.6667 24.5 33.4 16.7 23 13.5C18.8333 12.8333 10.2 13.8 9 23C8.5 25.6666 9.1 31.2 15.5 32Z" fill="#FFD2DF"/>
<path d="M7 39.9999C8.6 35.9999 12 33.3333 13.5 32.4999C10.3 31.6999 8.5 28.8333 8 27.4999C6.4 24.2999 8 20.1666 9 18.4999C12.2 13.6999 17 12.8333 19 12.9999C27 12.5999 30.3333 18.1666 31 21C33.4 26.1999 29.6667 31.1666 27.5 32.9999C31.9 35.7999 33.3333 38.8333 33.5 39.9999" stroke="black"/>
<path d="M15.8506 21.3333C15.7836 21.7264 15.8331 22.1456 15.9511 22.5257C16.0209 22.7519 16.12 22.9608 16.2743 23.1421C16.4432 23.3408 16.6821 23.4119 16.9325 23.4395C17.3548 23.4859 17.7174 23.2466 17.949 22.9144C18.1281 22.6577 18.2184 22.3298 18.2693 22.0238C18.3203 21.7177 18.348 21.4349 18.3378 21.139C18.329 20.8823 18.1164 20.6342 17.8441 20.6473C17.5718 20.6603 17.3403 20.8634 17.3505 21.139C17.3578 21.3319 17.3461 21.5263 17.3242 21.7177C17.3228 21.7337 17.3199 21.7497 17.3184 21.7656C17.3097 21.8425 17.3403 21.622 17.3272 21.6989C17.3213 21.7308 17.317 21.7642 17.3112 21.7961C17.2995 21.8613 17.2864 21.9281 17.2704 21.9919C17.2558 22.0514 17.2398 22.1094 17.2209 22.1674C17.2107 22.1979 17.199 22.2298 17.1874 22.2602C17.183 22.2704 17.1786 22.2805 17.1757 22.2907C17.2325 22.1239 17.2136 22.2051 17.1932 22.2457C17.1699 22.2965 17.1422 22.3458 17.1116 22.3937C17.1029 22.4067 17.0942 22.4183 17.0869 22.4299C17.0476 22.4908 17.1772 22.3226 17.1291 22.3763C17.1073 22.4009 17.0854 22.4256 17.0607 22.4488C16.9777 22.5257 17.1437 22.3951 17.0971 22.4241C17.0738 22.4386 17.0505 22.4531 17.0272 22.4676C16.9864 22.4908 16.9413 22.4836 17.0956 22.4401C17.0825 22.4444 17.0694 22.4502 17.0563 22.4532C16.9966 22.472 16.9107 22.4589 17.0898 22.456C17.0592 22.456 17.0287 22.4604 16.9981 22.4604C16.9951 22.4604 16.95 22.456 16.95 22.4575C16.9515 22.4531 17.0913 22.4836 17.0316 22.4676C16.9966 22.4589 16.9617 22.4517 16.9267 22.443C16.8597 22.427 17.052 22.5112 16.9966 22.472C16.9442 22.4357 16.9602 22.4198 17.0388 22.5097C17.0228 22.4923 17.0024 22.4734 16.985 22.4575C16.9325 22.4067 17.0621 22.5706 17.0228 22.5068C17.0141 22.4923 17.0039 22.4793 16.9951 22.4647C16.9791 22.4386 16.9646 22.4125 16.9515 22.3864C16.9427 22.369 16.9355 22.3516 16.9267 22.3356C17.0039 22.4908 16.9544 22.4038 16.9398 22.3618C16.9078 22.2776 16.883 22.1906 16.8626 22.1021C16.851 22.0542 16.8408 22.0049 16.8321 21.9556C16.8233 21.9107 16.8088 21.7482 16.8277 21.9426C16.819 21.8599 16.8102 21.7772 16.8088 21.6931C16.8088 21.6539 16.8088 21.6148 16.8102 21.5771C16.8102 21.5625 16.8131 21.548 16.8131 21.5321C16.8204 21.4349 16.7928 21.6655 16.8044 21.5973C16.8277 21.4639 16.8262 21.3392 16.7549 21.2173C16.6952 21.1158 16.5772 21.0172 16.4593 20.991C16.219 20.9374 15.8972 21.0636 15.8506 21.3348V21.3333Z" fill="#1E1E1E"/>
<path d="M19.0857 21.2478C19.0828 21.5829 19.0901 21.9267 19.1686 22.2545C19.2474 22.5823 19.4452 22.9333 19.77 23.0841C19.9667 23.1755 20.1794 23.2176 20.3947 23.1944C20.6103 23.1712 20.8376 23.1233 21.0253 22.9986C21.1869 22.8912 21.3312 22.7491 21.4199 22.5736C21.5189 22.3777 21.5597 22.1906 21.5859 21.976C21.6239 21.6627 21.589 21.3464 21.5904 21.0317C21.5918 20.7735 21.3616 20.5269 21.0968 20.54C20.8317 20.553 20.6046 20.7561 20.603 21.0317C20.6001 21.3464 20.6364 21.6627 20.5987 21.976L20.6162 21.8454C20.6015 21.9499 20.5782 22.0514 20.5391 22.1486L20.5886 22.0311C20.5726 22.0659 20.5551 22.1007 20.5346 22.1341C20.523 22.1529 20.4735 22.2182 20.5346 22.1384C20.5959 22.0586 20.5464 22.1225 20.5304 22.1384C20.5185 22.15 20.5056 22.1616 20.4938 22.1732C20.44 22.2255 20.6148 22.0891 20.5258 22.1486C20.4895 22.1718 20.4516 22.1921 20.4122 22.2095L20.5304 22.1602C20.4501 22.1921 20.3685 22.2124 20.2841 22.2255L20.4153 22.208C20.3336 22.2182 20.2534 22.2211 20.1721 22.2109L20.303 22.2284C20.252 22.2211 20.2025 22.208 20.1547 22.1892L20.2726 22.2385C20.2377 22.224 20.2084 22.2037 20.1763 22.1863C20.1139 22.15 20.2827 22.282 20.2216 22.2196C20.2084 22.2066 20.1969 22.1935 20.1837 22.1819C20.1195 22.1181 20.2273 22.2284 20.2216 22.2327C20.2216 22.2327 20.1882 22.1834 20.1865 22.1805C20.1662 22.1471 20.1502 22.1138 20.1341 22.0775L20.1837 22.195C20.1313 22.0717 20.102 21.9397 20.0832 21.8077L20.1006 21.9382C20.07 21.7091 20.0686 21.4785 20.07 21.2493C20.0731 20.9911 19.8415 20.7445 19.5764 20.7576C19.3113 20.7706 19.0842 20.9737 19.0828 21.2493L19.0857 21.2478Z" fill="#1E1E1E"/>
<path d="M13.4136 33.0838C14.0952 32.7371 14.7344 32.3149 15.3999 31.9394C15.6242 31.8117 15.7203 31.4868 15.5776 31.2664C15.4349 31.0459 15.1422 30.953 14.9019 31.0894C14.2364 31.4651 13.5971 31.8872 12.9156 32.2338C12.6855 32.3514 12.5996 32.6922 12.738 32.9069C12.8894 33.1419 13.1676 33.2087 13.4136 33.0838Z" fill="#1E1E1E"/>
<path d="M24.3049 36.4909C24.9951 35.6802 25.751 34.9333 26.5592 34.24C27.1721 33.7134 27.8146 33.2157 28.4013 32.6602C28.5949 32.4774 28.5862 32.1482 28.4013 31.964C28.2164 31.7798 27.8959 31.7798 27.7023 31.964C27.1155 32.5209 26.4734 33.0169 25.8602 33.5435C25.052 34.2383 24.2961 34.9855 23.6061 35.7948C23.4328 35.9977 23.4066 36.2922 23.6061 36.4909C23.7837 36.668 24.1318 36.6941 24.3049 36.4909Z" fill="#1E1E1E"/>
<ellipse cx="18.5" cy="26.9999" rx="1.5" ry="2" fill="white" stroke="black" stroke-width="0.8"/>
<path d="M19.5 13C16.3 8.6 18.5 7.16667 20 7C23 7 21.7476 10.1589 20.0001 10C14.5 9.5 17.5 3.5 20 3.5" stroke="black" stroke-linecap="round"/>
</g>
<defs>
<clipPath id="clip0_30_12">
<rect width="40" height="40" fill="white"/>
</clipPath>
</defs>
</svg>
