<svg width="40" height="40" viewBox="0 0 40 40" fill="none" xmlns="http://www.w3.org/2000/svg">
<circle cx="20" cy="20" r="20" fill="#477CEB"/>
<mask id="mask0_189_35" style="mask-type:luminance" maskUnits="userSpaceOnUse" x="0" y="0" width="40" height="40">
<circle cx="20" cy="20" r="20" fill="white"/>
</mask>
<g mask="url(#mask0_189_35)">
</g>
<mask id="mask1_189_35" style="mask-type:luminance" maskUnits="userSpaceOnUse" x="0" y="0" width="40" height="40">
<circle cx="20" cy="20" r="20" fill="white"/>
</mask>
<g mask="url(#mask1_189_35)">
</g>
<g filter="url(#filter0_i_189_35)">
<circle cx="20" cy="20" r="20" fill="black" fill-opacity="0.01"/>
</g>
<mask id="mask2_189_35" style="mask-type:luminance" maskUnits="userSpaceOnUse" x="0" y="0" width="40" height="40">
<circle cx="20" cy="20" r="20" fill="white"/>
</mask>
<g mask="url(#mask2_189_35)">
<g clip-path="url(#clip0_189_35)">
<path d="M20.8948 47.3142C19.3512 47.3739 17.8223 47.2837 16.4368 47.2004C13.1609 47.0043 9.08828 45.9789 8.73797 41.5754C8.48936 38.452 8.886 34.9251 9.981 31.9076C10.7844 29.6923 11.9608 29.281 14.1531 29.3385C18.4042 29.4501 22.504 29.2191 25.7539 29.4264C29.4299 29.6608 29.8175 33.3792 30.4164 37.5111C31.0628 41.9732 30.4413 43.6093 28.7259 45.2454C26.6975 47.1801 23.5922 47.2105 20.8948 47.3142Z" fill="white"/>
<path d="M22.2283 47.3142C20.6847 47.3739 19.1557 47.2837 17.7703 47.2004C14.4944 47.0043 10.4218 45.9789 10.0715 41.5754C9.82286 38.452 10.2195 34.9251 11.3145 31.9076C12.1179 29.6923 13.2943 29.281 15.4866 29.3385C19.7377 29.4501 23.8374 29.2191 27.0874 29.4264C30.7634 29.6608 31.151 33.3792 31.7499 37.5111C32.3963 41.9732 31.7748 43.6093 30.0594 45.2454C28.031 47.1801 24.9257 47.2105 22.2283 47.3142Z" fill="#E8E8E8"/>
<path d="M21.9498 8.01991C18.3309 7.91197 13.4018 8.23466 10.8078 9.19024C7.41722 10.4401 5.78898 13.0012 5.45038 16.494C5.26518 18.4029 5.29358 20.005 5.57537 21.9082C6.2253 26.3032 9.16931 28.8575 13.5916 29.1313C18.5649 29.4393 23.0645 29.3586 28.0242 28.8871C32.6419 28.4473 34.7235 24.8045 34.8666 20.7436C34.9973 17.0428 34.9996 12.8467 31.8488 10.4947C29.1786 8.50168 25.4869 8.12445 21.9498 8.01991Z" fill="white"/>
<path d="M22.6617 8.41835C19.0428 8.31041 14.1137 8.6331 11.5197 9.58868C8.12914 10.8386 6.5009 13.3996 6.1623 16.8925C5.97709 18.8014 6.0055 20.4035 6.28728 22.3067C6.93722 26.7017 9.88123 29.2559 14.3035 29.5298C19.2768 29.8377 23.7764 29.757 28.7361 29.2855C33.3538 28.8458 35.4354 25.203 35.5785 21.142C35.7092 17.4413 35.7115 13.2451 32.5607 10.8931C29.8905 8.90012 26.1988 8.52288 22.6617 8.41835Z" fill="#E8E8E8"/>
<path d="M21.8371 7.35401C20.3338 7.3097 18.8283 7.33811 17.3273 7.43014C15.8207 7.52218 14.3106 7.67443 12.8255 7.95395C11.5552 8.19256 10.3076 8.54821 9.16909 9.17314C8.03058 9.79808 7.07158 10.6616 6.35689 11.7308C5.64219 12.8 5.232 13.9931 5.01725 15.2259C4.72524 16.8917 4.68661 18.6301 4.83318 20.3129C4.96158 21.7809 5.20246 23.2228 5.81603 24.5715C6.30348 25.6442 7.02841 26.6213 7.93854 27.3735C8.88162 28.1518 9.98378 28.7007 11.1609 29.0245C12.679 29.4415 14.2822 29.4551 15.8445 29.5142C19.5021 29.6528 23.1631 29.5585 26.8104 29.2506C27.6138 29.1824 28.4239 29.129 29.2102 28.9427C29.8522 28.7904 30.4794 28.5564 31.0611 28.245C32.144 27.6678 33.0496 26.7997 33.7154 25.7726C34.3812 24.7454 34.7914 23.5955 35.0119 22.4149C35.2584 21.0946 35.2675 19.7311 35.2584 18.3915C35.238 15.6679 34.8448 12.7148 32.8666 10.6696C31.8042 9.57196 30.3873 8.84363 28.9534 8.36186C27.4149 7.84487 25.7912 7.60853 24.1778 7.47786C23.3983 7.41423 22.6177 7.37901 21.8371 7.35515C21.5939 7.34833 21.3621 7.57445 21.3724 7.81987C21.3837 8.0778 21.5769 8.27664 21.8371 8.2846C22.6347 8.30846 23.4324 8.34596 24.2278 8.41186C24.6243 8.44481 25.0208 8.48458 25.4151 8.53457C25.464 8.54025 25.514 8.54707 25.5628 8.55389C25.4765 8.54253 25.6378 8.56411 25.6356 8.56411C25.7174 8.57548 25.798 8.58684 25.8799 8.59934C26.0901 8.63115 26.3003 8.66638 26.5105 8.70387C27.2536 8.84022 27.9899 9.01861 28.7068 9.2595C28.8864 9.31972 29.0647 9.38448 29.2409 9.45266C29.3136 9.48106 29.3863 9.51061 29.4602 9.54015C29.6033 9.5981 29.3818 9.50493 29.5227 9.56628C29.5806 9.59128 29.6374 9.61628 29.6942 9.64241C30.0351 9.7958 30.3669 9.96624 30.6884 10.156C30.835 10.2423 30.9805 10.3332 31.1225 10.4287C31.1998 10.481 31.277 10.5332 31.3531 10.5878C31.3906 10.615 31.4293 10.6423 31.4668 10.6696C31.4793 10.6787 31.6179 10.7855 31.5497 10.7309C31.8054 10.9332 32.0463 11.1525 32.2701 11.3888C32.3826 11.5093 32.4917 11.6331 32.5951 11.7615C32.6212 11.7933 32.6462 11.8251 32.6712 11.857C32.6166 11.7865 32.6712 11.8581 32.6848 11.8763C32.7371 11.9467 32.7882 12.0183 32.8382 12.091C33.02 12.3569 33.1825 12.6353 33.3268 12.9228C33.3927 13.0546 33.4541 13.1886 33.5131 13.3238C33.47 13.2261 33.5234 13.3488 33.5291 13.3613C33.5438 13.3988 33.5597 13.4363 33.5734 13.4738C33.6075 13.5613 33.6404 13.6499 33.6722 13.7386C33.7813 14.0465 33.8722 14.359 33.9495 14.676C34.0267 14.993 34.0858 15.2952 34.1358 15.6088C34.1494 15.6918 34.1619 15.7736 34.1733 15.8565C34.1756 15.8702 34.1938 16.0077 34.179 15.8986C34.1847 15.9406 34.1892 15.9815 34.1949 16.0236C34.2153 16.1906 34.2324 16.3588 34.2483 16.5258C34.3699 17.8609 34.3415 19.2062 34.2926 20.5435C34.2812 20.8515 34.2597 21.1594 34.2256 21.4662C34.2176 21.5423 34.2074 21.6184 34.1983 21.6934C34.2142 21.5741 34.1972 21.7014 34.1938 21.7207C34.1892 21.7525 34.1847 21.7832 34.1801 21.815C34.1563 21.9707 34.129 22.1263 34.0983 22.2797C33.9858 22.8479 33.8279 23.408 33.6177 23.9477C33.5915 24.0148 33.5643 24.083 33.5359 24.15C33.5813 24.0409 33.5336 24.1545 33.5256 24.1716C33.5109 24.2045 33.4961 24.2375 33.4813 24.2704C33.4222 24.4011 33.3586 24.5306 33.2927 24.6579C33.162 24.9101 33.0166 25.1567 32.8587 25.393C32.7871 25.501 32.7121 25.6067 32.6337 25.7101C32.6223 25.726 32.5473 25.8203 32.6201 25.7282C32.5985 25.7555 32.5769 25.7839 32.5542 25.8112C32.503 25.8748 32.4496 25.9384 32.3962 26.0009C32.211 26.2145 32.0122 26.4168 31.802 26.6066C31.7042 26.694 31.6054 26.7781 31.5031 26.8588C31.4884 26.8713 31.3918 26.9429 31.4838 26.8736C31.4554 26.8952 31.427 26.9167 31.3975 26.9383C31.3395 26.9815 31.2804 27.0224 31.2213 27.0633C30.9793 27.2292 30.7259 27.3792 30.4635 27.511C30.3294 27.5792 30.1919 27.6428 30.0533 27.7019C30.1453 27.6633 30.0635 27.6974 30.0408 27.7064C30.0112 27.7178 29.9817 27.7303 29.951 27.7417C29.8669 27.7746 29.7817 27.8053 29.6954 27.8348C29.3908 27.9394 29.0795 28.0246 28.7648 28.0916C28.6137 28.1234 28.4614 28.1507 28.3091 28.1746C28.2671 28.1814 28.2239 28.1871 28.1819 28.1928C28.2864 28.178 28.1433 28.1973 28.133 28.1984C28.0217 28.2121 27.9092 28.2223 27.7978 28.2325C27.3547 28.2746 26.9116 28.3132 26.4684 28.3496C25.5617 28.4234 24.655 28.4836 23.746 28.5314C21.9803 28.6234 20.2123 28.662 18.4431 28.6461C17.5398 28.6382 16.6365 28.6154 15.7332 28.5802C14.8299 28.545 14.0084 28.5177 13.1505 28.4416C12.988 28.4268 12.8267 28.4098 12.6653 28.3882C12.7789 28.403 12.646 28.3848 12.6301 28.3825C12.604 28.3791 12.5778 28.3746 12.5517 28.3711C12.4608 28.3575 12.3688 28.3416 12.2779 28.3257C11.9745 28.2712 11.6722 28.203 11.3757 28.12C11.0791 28.0371 10.8064 27.9462 10.528 27.8382C10.4712 27.8167 10.4156 27.7928 10.3587 27.7701C10.2451 27.7235 10.4485 27.8098 10.336 27.7598C10.3031 27.7451 10.2701 27.7303 10.2372 27.7155C10.1065 27.6564 9.97696 27.594 9.8497 27.5292C9.59859 27.3997 9.35544 27.2565 9.12023 27.1008C9.00434 27.0236 8.88958 26.9429 8.77822 26.8599C8.76232 26.8474 8.66801 26.7747 8.76118 26.8486C8.743 26.8338 8.72482 26.8202 8.70664 26.8054C8.64301 26.7554 8.58052 26.7031 8.51916 26.6509C8.30782 26.4713 8.1067 26.2793 7.91809 26.0771C7.8306 25.9839 7.74651 25.8884 7.6647 25.7907C7.61925 25.7373 7.57608 25.6828 7.53176 25.6282C7.51926 25.6123 7.44768 25.5169 7.51813 25.6112C7.48972 25.5737 7.46132 25.5362 7.43405 25.4987C7.10113 25.0442 6.82047 24.5511 6.59095 24.0364C6.57618 24.0023 6.56141 23.9682 6.54664 23.9341C6.59209 24.0398 6.54209 23.9239 6.53641 23.9068C6.50801 23.8375 6.48074 23.7671 6.45347 23.6966C6.39893 23.5535 6.34893 23.4103 6.30235 23.2649C6.20577 22.9649 6.12396 22.6604 6.05578 22.3525C5.71263 20.7969 5.63651 19.1403 5.71491 17.5268C5.7365 17.0871 5.76945 16.6474 5.8149 16.2088C5.82285 16.1326 5.8308 16.0565 5.84103 15.9793C5.84558 15.9452 5.85012 15.9099 5.85353 15.8759C5.83989 15.9861 5.85694 15.8497 5.85921 15.8349C5.88421 15.66 5.91261 15.4861 5.94557 15.3123C6.05919 14.7146 6.22167 14.1249 6.44551 13.5579C6.45915 13.5227 6.47392 13.4886 6.48755 13.4534C6.53414 13.3363 6.44779 13.542 6.49892 13.4261C6.52846 13.3579 6.55914 13.2898 6.58982 13.2227C6.65231 13.0886 6.71821 12.9568 6.78752 12.8262C6.92501 12.5682 7.0784 12.3183 7.24543 12.0785C7.28065 12.0285 7.31588 11.9797 7.3511 11.9308C7.37269 11.9013 7.39428 11.8729 7.417 11.8433C7.49086 11.7445 7.35565 11.9172 7.43405 11.8217C7.52949 11.7036 7.62607 11.5865 7.72833 11.4729C7.9215 11.2582 8.12829 11.0559 8.34645 10.865C8.40326 10.8162 8.46008 10.7673 8.51802 10.7196C8.54757 10.6957 8.57597 10.6718 8.60551 10.6491C8.61801 10.6389 8.71914 10.5628 8.63051 10.6287C8.75323 10.5366 8.87708 10.4469 9.00434 10.3617C9.26681 10.1855 9.53951 10.0242 9.8213 9.87875C9.95537 9.80944 10.0906 9.74354 10.2269 9.68104C10.3031 9.64582 10.3792 9.61173 10.4565 9.57992C10.3633 9.61969 10.4928 9.56515 10.5019 9.56174C10.5553 9.54015 10.6076 9.5197 10.661 9.49811C10.9212 9.39698 11.1848 9.30836 11.4518 9.22995C12.0461 9.05497 12.6528 8.9243 13.263 8.81522C13.6061 8.75387 13.9493 8.69933 14.2947 8.65161C14.339 8.64592 14.3833 8.63911 14.4276 8.63343C14.3276 8.64706 14.4754 8.62661 14.4833 8.62661C14.5583 8.61638 14.6333 8.60729 14.7083 8.5982C14.906 8.5732 15.1048 8.55048 15.3037 8.52889C16.7944 8.36868 18.2943 8.28914 19.793 8.26869C20.4759 8.2596 21.1588 8.26415 21.8416 8.28346C22.0848 8.29028 22.3166 8.0653 22.3064 7.81874C22.2961 7.57217 22.1018 7.36197 21.8416 7.35401H21.8371Z" fill="#1E1E1E"/>
<path d="M21.3004 46.8906C19.7949 46.9474 18.2894 46.8678 16.7873 46.7747C16.5668 46.761 16.3464 46.744 16.1271 46.7224C16.0203 46.7122 15.9135 46.7008 15.8078 46.6883C15.7544 46.6826 15.701 46.6758 15.6476 46.669C15.626 46.6667 15.6044 46.6633 15.5828 46.6611C15.4465 46.644 15.6294 46.6679 15.5453 46.6565C15.0965 46.5917 14.65 46.5122 14.208 46.4043C13.766 46.2963 13.3342 46.1634 12.9138 45.9975C12.8638 45.977 12.8138 45.9566 12.7638 45.9361C12.8865 45.9873 12.7275 45.9202 12.6968 45.9055C12.5888 45.8577 12.482 45.8066 12.3764 45.7532C12.1764 45.6521 11.9809 45.5419 11.7923 45.4214C11.7026 45.3646 11.6151 45.3055 11.5287 45.2442C11.4855 45.2135 11.4435 45.1817 11.4003 45.1498C11.3117 45.0839 11.4799 45.2146 11.3935 45.1453C11.3685 45.1249 11.3435 45.1055 11.3197 45.0862C11.1469 44.9453 10.9833 44.7942 10.8299 44.6329C10.7561 44.5556 10.6856 44.4761 10.6163 44.3942C10.5822 44.3533 10.5481 44.3113 10.5152 44.2693C10.5856 44.3579 10.5356 44.2965 10.5186 44.2727C10.4959 44.242 10.4731 44.2113 10.4516 44.1806C10.3175 43.992 10.1959 43.7932 10.0891 43.5864C10.0368 43.4852 9.98797 43.3818 9.94252 43.2773C9.90844 43.2001 9.94252 43.2785 9.9482 43.2921C9.93571 43.2591 9.92207 43.2273 9.90957 43.1944C9.88344 43.1285 9.85958 43.0614 9.83685 42.9944C9.75391 42.7546 9.68914 42.5092 9.63801 42.2604C9.61188 42.132 9.59142 42.0024 9.57211 41.8729C9.56074 41.7934 9.58461 41.9865 9.57097 41.8559C9.56643 41.815 9.56188 41.7741 9.55734 41.7343C9.54938 41.6548 9.54256 41.5764 9.53688 41.4968C9.51189 41.165 9.49371 40.8321 9.48348 40.4992C9.46076 39.8004 9.46985 39.0993 9.5062 38.4017C9.52552 38.0472 9.55165 37.6927 9.58574 37.3382C9.60165 37.1689 9.61983 36.9996 9.63915 36.8314C9.64937 36.7473 9.6596 36.6621 9.66982 36.578C9.66982 36.5837 9.69028 36.4178 9.68005 36.4985C9.68687 36.4473 9.69369 36.3973 9.70164 36.3462C9.89935 34.9543 10.2129 33.5749 10.6697 32.2444C10.7209 32.0967 10.772 31.949 10.8277 31.8024C10.8549 31.7319 10.8822 31.6626 10.9106 31.5933C10.9038 31.6092 10.8742 31.6751 10.9106 31.5956C10.9288 31.5547 10.947 31.5138 10.9663 31.4729C11.0674 31.2547 11.1822 31.0422 11.3151 30.8411C11.3447 30.7968 11.3753 30.7525 11.4071 30.7093C11.4219 30.6889 11.4901 30.6036 11.4106 30.7036C11.4231 30.6877 11.4355 30.6718 11.4492 30.6559C11.5185 30.5718 11.5924 30.49 11.6696 30.4139C11.7332 30.3514 11.806 30.2684 11.8844 30.2241C11.7628 30.2934 11.8935 30.2184 11.9253 30.1969C11.9707 30.165 12.0184 30.1344 12.0662 30.106C12.1457 30.0582 12.2275 30.0139 12.3127 29.9753C12.3366 29.9639 12.3639 29.948 12.39 29.9412C12.3832 29.9435 12.2832 29.9832 12.357 29.956C12.4104 29.9355 12.4639 29.9151 12.5184 29.8969C12.7172 29.8299 12.9229 29.7833 13.1308 29.7492C13.157 29.7446 13.1831 29.7424 13.2092 29.7367C13.2785 29.723 13.0888 29.7503 13.1967 29.7378C13.2513 29.7321 13.3058 29.7253 13.3603 29.7196C13.4853 29.7083 13.6115 29.6992 13.7376 29.6946C14.0001 29.6833 14.2637 29.6844 14.5261 29.6912C16.0567 29.7287 17.5883 29.7276 19.12 29.7151C20.5573 29.7026 21.9958 29.681 23.4343 29.6924C24.0888 29.698 24.7444 29.7105 25.3989 29.7378C25.7 29.7503 26.0034 29.7628 26.3045 29.7878C26.3647 29.7935 26.426 29.8003 26.4863 29.806C26.5101 29.8083 26.576 29.8208 26.4692 29.8037C26.5044 29.8094 26.5385 29.8139 26.5737 29.8196C26.6919 29.8389 26.8078 29.8628 26.9237 29.8923C27.0396 29.9219 27.143 29.9526 27.2509 29.9901C27.3009 30.0071 27.3498 30.0253 27.3987 30.0446C27.4157 30.0514 27.443 30.0582 27.4566 30.0685C27.3612 29.9992 27.4362 30.0605 27.4725 30.0776C27.6589 30.1639 27.8373 30.2662 28.0054 30.3843C28.0293 30.4014 28.0531 30.4196 28.077 30.4366C28.1452 30.4855 28.0531 30.423 28.0531 30.4173C28.0531 30.4355 28.1486 30.4946 28.1668 30.5105C28.2486 30.5809 28.327 30.6548 28.402 30.732C28.4713 30.8025 28.5372 30.8763 28.5997 30.9513C28.619 30.9741 28.6372 30.9979 28.6565 31.0206C28.711 31.0877 28.6417 30.9979 28.6394 30.9979C28.6678 31.0025 28.7269 31.1161 28.7462 31.1445C28.8701 31.3217 28.9814 31.5081 29.0814 31.7001C29.1314 31.7944 29.178 31.891 29.2223 31.9876C29.2451 32.0376 29.2666 32.0876 29.2882 32.1364C29.2348 32.0137 29.3178 32.2103 29.3291 32.2398C29.5098 32.6989 29.6473 33.1738 29.7643 33.6533C30.0245 34.7271 30.1791 35.8235 30.3347 36.9166C30.5052 38.104 30.6767 39.3027 30.6654 40.5503C30.6631 40.798 30.654 41.0457 30.6335 41.2923C30.6245 41.4014 30.6142 41.5105 30.6006 41.6184C30.5983 41.64 30.5949 41.6604 30.5926 41.682C30.579 41.7934 30.6097 41.5741 30.5926 41.6832C30.5836 41.7445 30.5745 41.8047 30.5642 41.8661C30.4983 42.2513 30.3995 42.6308 30.2563 42.9944C30.2404 43.0342 30.204 43.1864 30.2381 43.0421C30.229 43.0819 30.2018 43.1239 30.1847 43.1614C30.1472 43.2432 30.1063 43.3239 30.0643 43.4046C29.9825 43.5591 29.8927 43.7091 29.795 43.8534C29.7473 43.9238 29.6984 43.9943 29.6473 44.0625C29.6325 44.0829 29.6166 44.1034 29.6007 44.1238C29.5564 44.184 29.6234 44.0954 29.6257 44.0909C29.5996 44.134 29.5609 44.1727 29.5291 44.2124C29.4121 44.3556 29.2882 44.4942 29.1598 44.6283C29.0087 44.7863 28.8531 44.9408 28.6894 45.0862C28.636 45.1339 28.5815 45.1794 28.5258 45.2248C28.4929 45.2521 28.4599 45.2782 28.4258 45.3044C28.4406 45.293 28.4906 45.2555 28.419 45.3089C28.294 45.401 28.1679 45.4896 28.0361 45.5714C27.7873 45.7282 27.5282 45.8668 27.2612 45.9873C27.2362 45.9986 27.21 46.01 27.185 46.0213C27.176 46.0259 27.0476 46.0782 27.1419 46.0407C27.0771 46.0668 27.0123 46.0929 26.9464 46.1179C26.8021 46.1725 26.6556 46.2236 26.5078 46.2702C25.942 46.4486 25.3591 46.569 24.7717 46.6554C24.7364 46.6611 24.7001 46.6656 24.6637 46.6701C24.7683 46.6554 24.6251 46.6747 24.6149 46.677C24.5433 46.6861 24.4706 46.6951 24.399 46.7031C24.2479 46.7201 24.0956 46.736 23.9433 46.7497C23.6468 46.7769 23.3502 46.7974 23.0525 46.8144C22.4696 46.8474 21.8856 46.8667 21.3016 46.8894C21.0595 46.8985 20.8255 47.0962 20.8368 47.3542C20.8482 47.5973 21.0414 47.8291 21.3016 47.8189C23.749 47.7246 26.4465 47.7132 28.5758 46.3293C29.3689 45.8134 30.0688 45.1089 30.5961 44.3227C31.0449 43.6523 31.3301 42.8785 31.463 42.0843C31.6459 40.9844 31.6096 39.8652 31.5005 38.7596C31.3732 37.4768 31.1767 36.1917 30.9608 34.9202C30.6358 33.0068 30.162 30.7741 28.4713 29.5844C28.0861 29.3129 27.6384 29.1197 27.1828 29.0027C26.6147 28.8572 26.0238 28.8379 25.4398 28.8118C24.0536 28.7516 22.6651 28.7561 21.2777 28.7663C19.737 28.7777 18.1951 28.8004 16.6543 28.7936C15.8783 28.7902 15.1033 28.7686 14.3273 28.7584C13.8023 28.7516 13.2751 28.7766 12.7581 28.8743C11.8162 29.0527 11.0413 29.5753 10.5118 30.373C10.1868 30.8638 9.97207 31.4206 9.78118 31.9739C9.54711 32.6534 9.35054 33.3465 9.18806 34.0465C8.854 35.4827 8.65288 36.953 8.57562 38.4255C8.53812 39.1402 8.53131 39.8561 8.5563 40.5719C8.58017 41.2309 8.61539 41.8956 8.7506 42.5433C8.96308 43.558 9.44144 44.5079 10.1516 45.2657C10.8231 45.9816 11.6742 46.4861 12.5775 46.8554C14.5875 47.678 16.835 47.7405 18.9745 47.8143C19.7506 47.8416 20.5266 47.8473 21.3027 47.8189C21.5447 47.8098 21.7788 47.6121 21.7674 47.3542C21.7561 47.1099 21.5629 46.8804 21.3027 46.8894L21.3004 46.8906Z" fill="#1E1E1E"/>
<path d="M14.8737 29.965C17.3916 31.1876 20.4209 31.3546 23.0979 30.5774C23.808 30.3706 24.5011 30.0911 25.1488 29.7332C25.3544 29.6196 25.4215 29.3366 25.3044 29.1378C25.1874 28.9389 24.9158 28.8674 24.709 28.9821C24.4432 29.1287 24.1705 29.2628 23.891 29.3809C23.9716 29.3469 23.8432 29.4003 23.8387 29.4014C23.8057 29.415 23.7728 29.4275 23.7398 29.44C23.6671 29.4684 23.5944 29.4957 23.5205 29.523C23.3728 29.5775 23.2228 29.6275 23.0729 29.6741C22.7661 29.7695 22.4559 29.8513 22.1411 29.9195C21.9889 29.9525 21.8366 29.982 21.6832 30.0093C21.6026 30.0229 21.5219 30.0366 21.4401 30.0491C21.4105 30.0536 21.381 30.0581 21.3514 30.0627C21.3219 30.0672 21.2924 30.0706 21.2628 30.0752C21.3037 30.0695 21.298 30.0706 21.2446 30.0775C20.5822 30.157 19.9164 30.1888 19.2494 30.1604C18.9142 30.1468 18.5801 30.1184 18.2472 30.0752C18.2665 30.0775 18.3177 30.0854 18.2268 30.0729C18.1813 30.0661 18.1359 30.0604 18.0916 30.0525C18.0166 30.0411 17.9416 30.0286 17.8666 30.015C17.695 29.9854 17.5234 29.9513 17.353 29.9127C16.9917 29.832 16.6349 29.732 16.2849 29.6127C15.9031 29.4821 15.6566 29.3809 15.3112 29.2128C15.0998 29.1105 14.8408 29.1548 14.7158 29.3684C14.6044 29.5593 14.6601 29.8604 14.8714 29.9638L14.8737 29.965Z" fill="#1E1E1E"/>
<path d="M8.63059 18.3396C8.43857 21.9301 10.3952 24.7799 14.0005 25.2571C16.8922 25.64 20.6612 25.4684 23.5768 25.4411C25.9867 25.4184 28.2956 24.7628 29.6534 23.2391C30.5681 22.2119 31.3578 20.3689 31.3589 18.6089C31.3623 13.5662 27.2741 12.0823 25.4447 11.7778C23.6074 11.4721 21.6088 11.4142 19.7476 11.4244C17.0672 11.4392 14.0039 11.621 11.8848 12.9231C11.4473 13.1913 8.83171 14.5832 8.63173 18.3396H8.63059Z" fill="#1E1E1E"/>
<path d="M17.4826 16.9365H16.6997V17.7194H17.4826V16.9365Z" fill="white"/>
<path d="M17.5763 17.8745H16.7935V18.6574H17.5763V17.8745Z" fill="white"/>
<path d="M19.0544 16.9365H18.2715V17.7194H19.0544V16.9365Z" fill="white"/>
<path d="M19.2702 17.8745H18.4873V18.6574H19.2702V17.8745Z" fill="white"/>
<path d="M18.0158 18.8145H17.2329V19.5973H18.0158V18.8145Z" fill="white"/>
<path d="M18.9191 18.8145H18.1362V19.5973H18.9191V18.8145Z" fill="white"/>
<path d="M21.4338 16.9365H20.6509V17.7194H21.4338V16.9365Z" fill="white"/>
<path d="M21.2741 17.8745H20.4912V18.6574H21.2741V17.8745Z" fill="white"/>
<path d="M23.1276 16.9365H22.3447V17.7194H23.1276V16.9365Z" fill="white"/>
<path d="M22.9679 17.8745H22.1851V18.6574H22.9679V17.8745Z" fill="white"/>
<path d="M21.736 18.8145H20.9531V19.5973H21.736V18.8145Z" fill="white"/>
<path d="M22.6379 18.8145H21.855V19.5973H22.6379V18.8145Z" fill="white"/>
<path d="M5.32889 18.9691C5.8402 19.2793 6.50377 19.3543 7.08552 19.4066C7.78999 19.4691 8.50583 19.4498 9.20235 19.3214C9.4421 19.2771 9.5989 18.9748 9.52618 18.7499C9.44323 18.4931 9.21144 18.3783 8.95465 18.426C8.87852 18.4397 8.80239 18.4522 8.72626 18.4635C8.81034 18.451 8.72967 18.4635 8.69104 18.4669C8.65695 18.4703 8.624 18.4737 8.58991 18.4772C8.4297 18.4931 8.26949 18.5021 8.10814 18.5078C7.7809 18.5181 7.45253 18.509 7.12643 18.4817C7.05144 18.4749 6.97531 18.4681 6.90031 18.459C6.88668 18.4578 6.75942 18.4419 6.82191 18.4499C6.88441 18.4578 6.77874 18.4431 6.76624 18.4419C6.61966 18.4203 6.47422 18.3931 6.33106 18.359C6.2163 18.3317 6.10267 18.2999 5.99132 18.2613C5.96405 18.2522 5.93792 18.2408 5.91065 18.2306C5.81861 18.1965 6.00609 18.2806 5.92314 18.2351C5.8811 18.2124 5.83793 18.192 5.79588 18.167C5.58795 18.0408 5.27662 18.1147 5.16072 18.334C5.04483 18.5533 5.10505 18.8351 5.32775 18.9691H5.32889Z" fill="#1E1E1E"/>
<path d="M30.9108 19.4578C31.688 19.4373 32.4663 19.4828 33.2423 19.4248C33.9377 19.3726 34.9547 19.3441 35.2092 18.542C35.283 18.3102 35.1228 18.025 34.8854 17.9704C34.632 17.9125 34.3922 18.0466 34.3138 18.2943C34.2843 18.3886 34.3672 18.2193 34.3104 18.2977C34.3831 18.1977 34.324 18.2761 34.3047 18.2977C34.2491 18.3613 34.382 18.2613 34.2979 18.3011C34.2741 18.3124 34.2468 18.3261 34.2252 18.3408C34.307 18.3158 34.1832 18.3704 34.2252 18.3408C34.1911 18.3511 34.1582 18.3636 34.1229 18.3738C34.0525 18.3942 33.9809 18.409 33.9093 18.4227C33.8798 18.4283 33.8491 18.4329 33.8196 18.4374C33.8014 18.4397 33.7843 18.4431 33.7661 18.4454C33.8252 18.4374 33.8377 18.4363 33.8025 18.4397C33.7275 18.4477 33.6514 18.4579 33.5764 18.4658C33.3855 18.4863 33.1946 18.5011 33.0037 18.5113C32.3072 18.5476 31.6084 18.5113 30.9119 18.5283C30.6687 18.5351 30.4358 18.7374 30.4472 18.9931C30.4585 19.2487 30.6517 19.4646 30.9119 19.4578H30.9108Z" fill="#1E1E1E"/>
<path d="M9.8426 31.6687C9.37105 32.0289 8.89042 32.38 8.44501 32.7743C7.89507 33.2606 7.41444 33.8106 6.97585 34.398C6.83041 34.5934 6.93722 34.9252 7.14288 35.0332C7.38603 35.1616 7.62237 35.0752 7.77804 34.8661C7.87803 34.7321 7.96325 34.623 8.08596 34.4764C8.19618 34.3446 8.3098 34.2151 8.42683 34.0889C8.64045 33.8583 8.86656 33.639 9.1029 33.4299C9.3097 33.247 9.52445 33.0743 9.74147 32.9038C9.78578 32.8686 9.67784 32.9527 9.74715 32.8993C9.77556 32.8777 9.80396 32.8561 9.83237 32.8334C9.88464 32.7936 9.93577 32.7539 9.98804 32.7152C10.096 32.6334 10.2039 32.5516 10.3119 32.4698C10.5039 32.3232 10.6255 32.063 10.4789 31.8346C10.3562 31.6449 10.0505 31.5108 9.84373 31.6676L9.8426 31.6687Z" fill="#1E1E1E"/>
<path d="M7.31847 34.3849C6.81284 34.2042 6.19813 34.2463 5.77772 34.5996C5.57547 34.7689 5.4323 35.0405 5.38458 35.2984C5.32663 35.6177 5.36072 35.92 5.49366 36.2154C5.60387 36.4608 5.81521 36.679 6.06064 36.7915C6.35607 36.9267 6.66626 36.9505 6.98441 36.8869C7.24575 36.8346 7.52072 36.7006 7.70365 36.5029C7.91045 36.2802 8.01158 36.0063 8.03544 35.7063C8.0593 35.4064 7.97294 35.0962 7.83091 34.8428C7.75819 34.7133 7.62753 34.6087 7.52299 34.5053C7.35142 34.3338 7.03554 34.3201 6.86624 34.5053C6.69694 34.6905 6.68217 34.978 6.86624 35.1621C6.94123 35.2371 7.01623 35.3121 7.09122 35.3871L7.0185 35.2928C7.03895 35.3303 7.05713 35.3677 7.07531 35.4075L7.02872 35.2962C7.0719 35.3984 7.10144 35.5041 7.11735 35.6132L7.10031 35.4893C7.11167 35.5814 7.11281 35.6723 7.10031 35.7632L7.11735 35.6393C7.10713 35.7086 7.08895 35.7745 7.06281 35.8393L7.1094 35.7279C7.0844 35.7859 7.05372 35.8393 7.01736 35.8893L7.09008 35.795C7.05031 35.8461 7.00486 35.8904 6.95487 35.9291L7.04918 35.8563C6.98782 35.9018 6.92078 35.937 6.85033 35.9677L6.96169 35.9211C6.86965 35.9586 6.77534 35.9859 6.67762 36.0006L6.80148 35.9836C6.71171 35.9961 6.62195 35.9972 6.53219 35.987L6.65604 36.004C6.57536 35.9927 6.49696 35.9734 6.42197 35.9416L6.53332 35.9881C6.47765 35.9631 6.42538 35.9325 6.37652 35.8961L6.47083 35.9688C6.42083 35.9302 6.37766 35.8859 6.33789 35.837L6.41061 35.9313C6.36402 35.8711 6.32652 35.8063 6.29585 35.7359L6.34243 35.8472C6.31062 35.77 6.28903 35.6904 6.27767 35.6086L6.29471 35.7325C6.28335 35.6427 6.28335 35.553 6.29471 35.4632L6.27767 35.587C6.29016 35.5041 6.31175 35.4246 6.34357 35.3473L6.29698 35.4586C6.32766 35.3893 6.36516 35.3234 6.41174 35.2632L6.33902 35.3575C6.37084 35.3178 6.4072 35.2837 6.44583 35.2519L6.35152 35.3246C6.40265 35.2859 6.45606 35.2553 6.51401 35.2291L6.40265 35.2757C6.48787 35.2405 6.57536 35.2178 6.6674 35.2053L6.54355 35.2223C6.65831 35.2087 6.77307 35.2098 6.88783 35.2234L6.76398 35.2064C6.86965 35.2212 6.97305 35.245 7.07417 35.2814C7.3037 35.3632 7.5923 35.1894 7.64571 34.9576C7.70479 34.6974 7.56617 34.4735 7.32188 34.386L7.31847 34.3849Z" fill="#1E1E1E"/>
<path d="M6.04605 36.4388C5.92333 36.9115 5.84039 37.391 5.77335 37.8739C5.71881 38.2613 5.69154 38.6647 5.60064 39.0453L6.51304 39.1692C6.51532 39.0919 6.52213 39.0419 6.49941 38.9578C6.41078 38.6226 5.9631 38.4738 5.71199 38.7374C5.58587 38.8692 5.5086 39.0692 5.40861 39.2226C5.08251 39.7282 4.73596 40.2691 4.67233 40.8815C4.64051 41.1837 4.73936 41.5223 4.96207 41.7371C5.09387 41.8644 5.25863 41.945 5.44043 41.97C5.55292 41.9848 5.65518 41.9848 5.76767 41.9609C5.88015 41.9371 5.71426 41.9518 5.78244 41.9564C5.81198 41.9587 5.88243 41.9393 5.90742 41.9564L5.84834 41.9496C5.86879 41.953 5.88924 41.9587 5.90856 41.9632C5.92788 41.9689 5.94606 41.9746 5.96537 41.9802C6.0165 41.9973 6.0665 42.02 6.11763 42.0393C6.2608 42.0927 6.41533 42.1132 6.56645 42.0802C6.96413 41.9916 7.1982 41.611 7.23683 41.2281C7.27546 40.8451 7.12548 40.4611 6.97549 40.1157C6.82551 39.7703 6.67553 39.4123 6.49941 39.0783C6.38578 38.8635 6.06877 38.7794 5.86425 38.9113C5.64495 39.0521 5.57564 39.3169 5.69722 39.5464C5.8188 39.7759 5.92106 40.0293 6.03128 40.2713C6.07559 40.3691 6.12217 40.4668 6.16535 40.5656C6.12672 40.4793 6.19035 40.6304 6.1983 40.6497C6.22103 40.7099 6.24148 40.7701 6.25966 40.8304C6.27557 40.8838 6.29034 40.9372 6.3017 40.9917C6.30511 41.0065 6.32215 41.0906 6.31079 41.0292C6.29943 40.9679 6.31193 41.0485 6.31306 41.0644C6.31534 41.0951 6.31306 41.1269 6.3142 41.1576C6.31647 41.194 6.29148 41.2246 6.31875 41.1406C6.31193 41.1599 6.30511 41.1883 6.3017 41.2076C6.3142 41.1428 6.34374 41.1724 6.29943 41.2042C6.25512 41.236 6.33806 41.1394 6.30852 41.1917C6.29261 41.2201 6.23807 41.2292 6.29488 41.2087C6.38351 41.1781 6.22785 41.2349 6.32784 41.1894C6.42782 41.144 6.26421 41.1962 6.37897 41.1758C6.47896 41.1576 6.33693 41.1599 6.43691 41.1758C6.51986 41.1883 6.46191 41.1803 6.44373 41.1724C6.40964 41.1587 6.37442 41.1485 6.3392 41.1349C6.14149 41.0576 5.9381 41.0065 5.72335 41.0338C5.66881 41.0406 5.61427 41.0519 5.55973 41.0576C5.57564 41.0553 5.65404 41.0508 5.56996 41.0542C5.54042 41.0542 5.4836 41.0406 5.59382 41.0599C5.56201 41.0542 5.52565 41.0258 5.61882 41.0758C5.55746 41.044 5.64609 41.0815 5.64041 41.0997C5.64154 41.094 5.59155 41.0633 5.5995 41.0599C5.60973 41.0542 5.65745 41.161 5.62109 41.0838C5.612 41.0656 5.56201 41.0031 5.60632 41.061C5.64268 41.1099 5.612 41.0747 5.60632 41.0474C5.60177 41.0292 5.59837 41.0088 5.59268 40.9906C5.5745 40.9349 5.58928 41.0849 5.59837 41.0281C5.60064 41.011 5.59609 40.9906 5.59723 40.9724C5.59723 40.9531 5.60064 40.9338 5.60064 40.9144C5.60064 40.8508 5.57905 40.9974 5.59837 40.9349C5.61427 40.8838 5.62109 40.8281 5.63586 40.777C5.6495 40.7292 5.6654 40.6815 5.68358 40.6338C5.69267 40.6099 5.7029 40.5861 5.71085 40.5622C5.67904 40.6474 5.70176 40.5838 5.71085 40.5656C5.76085 40.4577 5.81425 40.352 5.8722 40.2475C5.98355 40.0486 6.1074 39.8577 6.23125 39.6657C6.2733 39.5998 6.31647 39.535 6.35511 39.4669C6.36988 39.4407 6.38465 39.4135 6.39828 39.3862C6.40396 39.3737 6.41078 39.3601 6.41533 39.3476C6.43691 39.293 6.48009 39.301 6.37215 39.3942L6.16762 39.5135H6.17217C6.02105 39.4726 5.87106 39.4328 5.71994 39.393L5.59155 39.0896C5.59155 39.0896 5.59155 39.101 5.59155 39.1067C5.58928 39.1158 5.59155 39.126 5.59041 39.1351C5.58814 39.1453 5.58814 39.1578 5.58814 39.168C5.57564 39.6873 6.37783 39.8043 6.50054 39.2919C6.59144 38.9112 6.61871 38.5079 6.67325 38.1204C6.74143 37.6375 6.82324 37.1569 6.94595 36.6853C7.00731 36.4501 6.86869 36.1706 6.62212 36.1138C6.37556 36.057 6.11649 36.1865 6.05059 36.4376L6.04605 36.4388Z" fill="#1E1E1E"/>
<path d="M29.5573 32.63C30.0585 32.9561 30.5436 33.3025 31.0092 33.6774C31.4748 34.0523 31.8913 34.4181 32.3333 34.7866C32.5206 34.9421 32.8407 34.9107 32.9857 34.7109C33.1306 34.511 33.1089 34.2253 32.91 34.0585C32.468 33.69 32.0338 33.3103 31.5859 32.9493C31.1379 32.5884 30.6351 32.2281 30.134 31.9019C29.9311 31.7699 29.6384 31.7615 29.4816 31.9776C29.3456 32.1661 29.3396 32.4882 29.5573 32.63Z" fill="#1E1E1E"/>
<path d="M32.7935 35.2051C32.8898 35.1574 32.9886 35.1219 33.093 35.0949L32.9719 35.1261C33.0843 35.0993 33.1981 35.0838 33.3138 35.0853L33.1888 35.0826C33.2805 35.0846 33.3712 35.0969 33.4599 35.1221L33.3439 35.0886C33.4045 35.1079 33.4622 35.1321 33.5163 35.1647L33.4143 35.1034C33.4574 35.1304 33.4965 35.1613 33.5325 35.196L33.4494 35.1107C33.5026 35.1652 33.5474 35.2252 33.5859 35.2916L33.5268 35.1864C33.5673 35.2595 33.598 35.336 33.6199 35.4169L33.5887 35.2959C33.6104 35.3837 33.6207 35.4729 33.6198 35.5634L33.6224 35.4384C33.6196 35.5222 33.6083 35.6024 33.5856 35.6829L33.619 35.5669C33.5967 35.6404 33.5668 35.7079 33.5276 35.7742L33.5889 35.6722C33.5551 35.7253 33.5172 35.7732 33.4721 35.8184L33.5574 35.7353C33.513 35.7771 33.4646 35.8136 33.4122 35.8448L33.5175 35.7857C33.4455 35.8261 33.3711 35.8553 33.2922 35.8748L33.4132 35.8436C33.3252 35.8641 33.2358 35.8722 33.1453 35.8712L33.2703 35.8739C33.1716 35.8705 33.0736 35.8544 32.979 35.8276L33.095 35.861C33.0215 35.8387 32.9508 35.8114 32.8846 35.7734L32.9867 35.8347C32.9313 35.8011 32.8822 35.7622 32.8369 35.7171L32.92 35.8024C32.877 35.7571 32.8404 35.7076 32.81 35.6528L32.8691 35.758C32.8357 35.6967 32.8112 35.6332 32.7919 35.5656L32.8231 35.6867C32.8002 35.5979 32.7908 35.5074 32.7915 35.4147L32.7889 35.5397C32.792 35.4284 32.8093 35.3211 32.8404 35.2146L32.8069 35.3305C32.8194 35.2902 32.8341 35.2496 32.8501 35.21L32.7888 35.3121C32.8546 35.2289 32.9204 35.1458 32.9863 35.0627C33.1369 34.8724 33.1141 34.5571 32.9106 34.4103C32.7071 34.2635 32.4198 34.2819 32.2582 34.486C32.1934 34.5679 32.125 34.649 32.0627 34.7329C31.9695 34.8569 31.9285 35.0253 31.8967 35.1754C31.8679 35.3114 31.8628 35.455 31.8697 35.5937C31.8822 35.8485 31.9768 36.1224 32.1406 36.3207C32.3404 36.564 32.6077 36.6989 32.9107 36.7666C33.182 36.8278 33.4802 36.8046 33.7413 36.7091C34.0397 36.599 34.2687 36.3745 34.4136 36.0958C34.6911 35.5591 34.5366 34.8782 34.1138 34.4685C33.9126 34.2723 33.6116 34.1722 33.335 34.1643C33.0298 34.1562 32.7246 34.2077 32.4487 34.3438C32.3383 34.3978 32.2486 34.4722 32.198 34.5879C32.1519 34.6939 32.144 34.8424 32.193 34.9488C32.2911 35.1639 32.5643 35.3198 32.798 35.2046L32.7935 35.2051Z" fill="#1E1E1E"/>
<path d="M33.2585 36.6041C33.3142 36.68 33.2415 36.566 33.2446 36.5725C33.2571 36.602 33.2728 36.6287 33.2865 36.658C33.3205 36.7342 33.3513 36.8118 33.3788 36.891C33.4564 37.1062 33.5218 37.3251 33.5816 37.5446C33.5892 37.5712 33.6269 37.7178 33.6071 37.6366C33.6239 37.7021 33.6396 37.7689 33.6553 37.8346C33.6869 37.9693 33.7165 38.1055 33.7437 38.2419C33.771 38.3782 33.7946 38.5128 33.8162 38.6498C33.8262 38.7161 33.8362 38.7825 33.8451 38.8489C33.8555 38.9392 33.8201 38.9594 33.8553 38.8089L34.6856 38.6004C34.805 38.8016 34.7794 38.8869 34.7684 38.7818C34.7665 38.7363 34.7666 38.766 34.7662 38.8713C34.7725 38.8271 34.7634 38.8567 34.739 38.9625L34.5924 39.1477L34.5966 39.1449L34.2465 39.2324C34.1444 39.2306 33.9098 38.9833 33.9893 39.0964C33.881 38.942 33.9925 39.1041 34.0108 39.134C34.0235 39.1542 34.036 39.1734 34.0496 39.1924C34.0894 39.2495 34.1336 39.305 34.1766 39.3595C34.2946 39.5094 34.4148 39.6579 34.5263 39.8108C34.5887 39.8951 34.6491 39.9819 34.7052 40.0703C34.7303 40.1097 34.7532 40.1494 34.7784 40.1888C34.8172 40.2472 34.7447 40.1252 34.7781 40.1865C34.7929 40.2157 34.8088 40.2436 34.8236 40.2727C34.8682 40.3614 34.9085 40.4528 34.939 40.5476C34.9461 40.5696 34.9534 40.5928 34.9594 40.615C34.9552 40.5983 34.9444 40.5149 34.9514 40.5953C34.9535 40.6134 34.9569 40.6325 34.9578 40.6506C34.9608 40.6766 34.9841 40.7391 34.9608 40.6766C34.9411 40.6251 34.9603 40.6526 34.9554 40.6887C34.9469 40.7537 34.9573 40.7056 34.9572 40.7045C34.9536 40.7026 34.971 40.656 34.9509 40.7189C34.9399 40.7522 34.9489 40.7809 34.9469 40.7343C34.9456 40.6932 34.9649 40.7116 34.9354 40.7436C34.9009 40.7808 34.9683 40.7112 34.9673 40.7125C34.9136 40.7622 34.9783 40.7089 34.9935 40.7014C34.9539 40.7152 34.9541 40.7174 34.9917 40.7062C35.0307 40.6971 35.0284 40.6974 34.9847 40.7047C34.9684 40.702 34.8943 40.6946 34.9917 40.7062C34.9638 40.7026 34.9364 40.7023 34.9088 40.701C34.8307 40.6986 34.7502 40.6953 34.6726 40.7066C34.558 40.7245 34.4429 40.7573 34.3375 40.805C34.2724 40.8354 34.2088 40.8691 34.1438 40.9007C34.0454 40.9499 34.2041 40.8983 34.1531 40.9019C34.1576 40.9014 34.2805 40.9157 34.2091 40.9011L34.2765 40.9207C34.2438 40.9051 34.244 40.9062 34.2769 40.9241C34.3276 40.9274 34.2884 40.9342 34.2612 40.9065C34.2142 40.8571 34.3115 40.9659 34.2712 40.9145C34.231 40.8631 34.3116 40.9864 34.2776 40.9298C34.2692 40.917 34.2348 40.8467 34.2634 40.9063C34.2904 40.9615 34.2626 40.8995 34.26 40.8769C34.2578 40.8577 34.2557 40.8397 34.2535 40.8205C34.2504 40.7945 34.2508 40.7682 34.2501 40.7419C34.2525 40.8515 34.2555 40.7196 34.257 40.7034C34.2718 40.5747 34.3006 40.4478 34.3352 40.3226C34.3143 40.3982 34.3335 40.3273 34.3387 40.313C34.3497 40.2797 34.3596 40.2465 34.3716 40.212C34.3901 40.1549 34.411 40.0987 34.4307 40.0415C34.5289 39.7636 34.609 39.4786 34.7204 39.206C34.8121 38.9815 34.7196 38.6868 34.4813 38.5944C34.2429 38.5019 33.9675 38.5934 33.8696 38.8335C33.7376 39.1554 33.6381 39.4906 33.5277 39.8203C33.4112 40.1667 33.3125 40.519 33.3291 40.8889C33.3457 41.2587 33.5552 41.6244 33.9039 41.7704C34.0794 41.8438 34.2701 41.8412 34.4481 41.7782C34.5404 41.7457 34.6234 41.6915 34.7138 41.6524C34.7235 41.6478 34.7939 41.6134 34.8014 41.6194C34.8077 41.6243 34.6999 41.6311 34.7795 41.6276C34.7987 41.6254 34.9183 41.6207 34.8071 41.6187C34.8771 41.6209 34.9431 41.6281 35.0152 41.6277C35.1992 41.627 35.3784 41.5638 35.5256 41.4529C35.8044 41.2433 35.917 40.863 35.8802 40.5264C35.8141 39.9267 35.3881 39.3905 35.0262 38.9338C34.9564 38.8446 34.8833 38.757 34.8168 38.6664C34.8045 38.6495 34.7934 38.6325 34.7811 38.6156C34.7067 38.5167 34.8697 38.7781 34.7762 38.6128C34.7128 38.5 34.6401 38.4055 34.5169 38.35C34.2272 38.2189 33.8995 38.4114 33.8493 38.718C33.8231 38.8767 33.8627 39.0208 33.9426 39.1568C34.035 39.313 34.2676 39.365 34.4275 39.3235C34.6141 39.2756 34.7302 39.1328 34.7728 38.9483C34.7964 38.846 34.7645 38.7091 34.7492 38.6067C34.7279 38.4628 34.7034 38.3204 34.6753 38.1772C34.6134 37.8607 34.5381 37.5468 34.455 37.2351C34.3501 36.8435 34.2478 36.376 34.0021 36.0431C33.8581 35.847 33.544 35.792 33.352 35.9504C33.1599 36.1088 33.1058 36.3919 33.2593 36.6006L33.2585 36.6041Z" fill="#1E1E1E"/>
<path d="M22.5283 38.0343C22.5238 38.0093 22.517 37.9843 22.509 37.9604C22.5045 37.8888 22.4965 37.8172 22.4795 37.7491C22.4272 37.5275 22.2681 37.3571 22.0909 37.223C21.9318 37.1025 21.7432 37.0094 21.5455 36.9821C21.6012 36.9514 21.6568 36.9185 21.7102 36.8833C21.875 36.773 22.0523 36.6424 22.1477 36.464C22.1875 36.389 22.2113 36.3083 22.225 36.2254C22.259 36.1526 22.2738 36.0708 22.2681 35.989C22.2863 35.8765 22.2875 35.7606 22.2681 35.6459C22.2011 35.2448 21.892 34.9039 21.5057 34.7869C21.2603 34.7119 20.9933 34.688 20.7353 34.696C20.6422 34.6914 20.549 34.688 20.4547 34.6846C20.2218 34.6755 19.99 34.6698 19.757 34.6676C19.2457 34.6608 18.4401 34.7142 18.3151 34.8073C18.3117 34.8073 18.2004 34.8562 18.197 34.8573C18.1936 34.8573 18.1902 34.8573 18.1867 34.8573C18.1549 34.8005 18.0459 34.813 18.0402 34.896C17.9584 36.1447 18.0311 37.2275 18.0061 38.4774C17.9993 38.8342 18.0345 38.9455 18.0527 39.1467C18.0584 39.2137 18.1197 39.3921 18.2095 39.4478C18.2174 39.4512 18.3026 39.5046 18.3663 39.5205C18.5844 39.5762 19.0889 39.5512 19.5946 39.5546C20.0911 39.558 20.5797 39.5477 21.0751 39.5387C21.3319 39.5341 21.5398 39.4841 21.783 39.3978C21.8057 39.3898 21.8307 39.3887 21.8386 39.3705C21.8568 39.3773 21.9148 39.341 21.9477 39.3114C21.9625 39.3091 21.9773 39.3046 21.992 39.291C22.075 39.2148 22.1363 39.1819 22.1943 39.0887C22.2954 38.9603 22.3693 38.8126 22.4102 38.6535C22.4238 38.6228 22.4374 38.5933 22.4488 38.5626C22.4772 38.4876 22.5317 38.4104 22.5147 38.3342C22.5306 38.2274 22.5477 38.1411 22.5272 38.0354L22.5283 38.0343ZM18.9673 39.3784C18.9242 39.3784 18.881 39.3784 18.8367 39.3784C18.8367 39.3716 18.8367 39.3648 18.8344 39.358C18.839 39.358 18.8446 39.3557 18.8492 39.3535C18.8833 39.3489 18.9185 39.3444 18.9526 39.3398C18.9526 39.3546 18.9583 39.3682 18.9662 39.3796L18.9673 39.3784ZM22.1602 37.4866C22.1886 37.5173 22.2147 37.5502 22.2386 37.5843C22.2284 37.5877 22.2193 37.5934 22.2102 37.6014C22.1988 37.6127 22.192 37.6298 22.1897 37.6468C22.1841 37.6536 22.1806 37.6627 22.1784 37.6718C22.1772 37.6809 22.175 37.69 22.1738 37.6991C22.1738 37.6979 22.1738 37.6968 22.1738 37.6945C22.167 37.6775 22.1511 37.6616 22.1329 37.6525C22.1704 37.6173 22.1568 37.5593 22.1204 37.5332C22.1272 37.5275 22.1341 37.523 22.1409 37.5173C22.1522 37.5082 22.1579 37.4968 22.1613 37.4843L22.1602 37.4866ZM21.8682 36.4731C21.8705 36.4401 21.8568 36.4072 21.8239 36.3913C21.8 36.3799 21.7682 36.3742 21.7455 36.3913C21.7432 36.3924 21.7421 36.3935 21.7398 36.3958C21.7284 36.4038 21.7205 36.4151 21.7148 36.4253C21.7034 36.4276 21.6921 36.4299 21.6887 36.431C21.6671 36.4378 21.6455 36.4435 21.625 36.4503C21.6159 36.4526 21.6057 36.456 21.5966 36.4583C21.5921 36.4413 21.5818 36.4265 21.5682 36.4163L21.6012 36.4094C21.6307 36.4265 21.6671 36.4208 21.6943 36.3992C21.7012 36.3947 21.708 36.389 21.7137 36.3833C21.7796 36.3742 21.8466 36.3663 21.9125 36.3594C21.9545 36.3549 21.9898 36.3276 21.9909 36.2822C21.9909 36.2788 21.9898 36.2754 21.9886 36.2708C21.9966 36.2663 22.0057 36.2617 22.0136 36.2572C21.9966 36.2742 21.9898 36.2924 21.9909 36.3106C21.9557 36.3697 21.9136 36.4242 21.867 36.4742L21.8682 36.4731ZM21.7375 36.5878C21.7375 36.5878 21.7284 36.5969 21.725 36.6015C21.7216 36.5958 21.7171 36.5912 21.7125 36.5867C21.725 36.5833 21.7386 36.5799 21.7523 36.5765C21.7477 36.5799 21.7432 36.5844 21.7375 36.5878ZM22.1727 37.7536C22.1738 37.7604 22.1761 37.7661 22.1784 37.7718C22.1727 37.7718 22.1682 37.7707 22.1625 37.7707C22.167 37.765 22.1693 37.7593 22.1727 37.7536ZM20.691 37.5525C20.691 37.5525 20.7069 37.5605 20.7081 37.5605C20.8831 37.5593 21.0376 37.5764 21.1773 37.6945C21.3012 37.7991 21.358 37.907 21.4375 38.0468C21.4398 38.0513 21.4523 38.0672 21.4546 38.0718C21.4444 38.0877 21.4375 38.082 21.4466 38.1047C21.483 38.207 21.4557 38.274 21.4466 38.3808C21.4466 38.3808 21.4557 38.3967 21.4546 38.3979C21.4296 38.4933 21.4205 38.5251 21.3705 38.6069C21.3682 38.6103 21.3478 38.6194 21.3455 38.624C21.3126 38.6762 21.2785 38.6956 21.2364 38.741C21.1137 38.8171 21.0069 38.8842 20.8592 38.8921C20.5581 38.9069 20.2968 38.8194 20.1513 38.5524C20.0729 38.407 20.0377 38.2354 20.0593 38.0706C20.0661 38.0581 20.0695 38.0445 20.0684 38.0286C20.1502 37.9888 20.0877 37.8741 20.0059 37.8911C19.8843 37.7945 19.7593 37.7013 19.6321 37.6127C19.6139 37.6002 19.5946 37.598 19.5775 37.6025C19.5536 37.5832 19.5287 37.5639 19.5048 37.5434C19.4866 37.5275 19.4639 37.5241 19.4423 37.5252C19.4071 37.4957 19.3696 37.4684 19.3355 37.4366C19.3207 37.423 19.3014 37.4173 19.2832 37.4173C19.2616 37.4002 19.2321 37.3946 19.2003 37.4127C19.1526 37.44 19.098 37.4491 19.0457 37.4434C18.9923 37.4218 18.9435 37.3923 18.898 37.3571C18.8867 37.3412 18.8753 37.3241 18.8651 37.3059C18.848 37.2503 18.8424 37.1878 18.8412 37.1366C18.8753 37.0787 18.9083 37.0207 18.9423 36.9628C18.9673 36.9571 18.9923 36.9526 19.0173 36.9469C19.0435 36.9412 19.0605 36.9207 19.0696 36.8958C19.0912 36.898 19.1128 36.9003 19.1344 36.9071C19.1594 36.9139 19.1923 36.9071 19.2105 36.8878C19.3787 36.6969 19.5457 36.5072 19.7139 36.3163C19.7502 36.2754 19.7366 36.2276 19.7059 36.2026C19.7059 36.1617 19.6957 36.1208 19.69 36.0788C19.6684 35.914 19.7809 35.7697 19.8945 35.6516C19.9025 35.6447 20.0229 35.5845 20.0297 35.5777C20.1627 35.5538 20.2172 35.5618 20.3172 35.572C20.3286 35.5743 20.3411 35.5754 20.3547 35.572C20.3547 35.572 20.3558 35.572 20.357 35.572C20.3627 35.5788 20.3695 35.5857 20.3786 35.5902C20.4058 35.6038 20.4342 35.6163 20.4615 35.63C20.4774 35.6379 20.4956 35.6391 20.5126 35.6368C20.649 35.7266 20.6774 35.9572 20.6626 36.1027C20.649 36.2367 20.5888 36.3663 20.4911 36.456C20.3797 36.514 20.2479 36.5333 20.1263 36.5003C20.0956 36.4924 20.065 36.5037 20.0456 36.5276C20.0206 36.5151 19.99 36.5128 19.9638 36.5299C19.9536 36.5333 19.9434 36.5401 19.9343 36.5492C19.9241 36.5606 19.9138 36.5719 19.9036 36.5833C19.7616 36.7162 19.632 36.8617 19.5162 37.0185C19.5071 37.0116 19.498 37.0048 19.4877 36.9992C19.4287 36.9673 19.3707 37.0151 19.3707 37.0685C19.3525 37.1162 19.39 37.1753 19.4434 37.1753C19.4503 37.1866 19.4571 37.1969 19.4684 37.2059C19.5014 37.2298 19.5423 37.2457 19.5764 37.265C19.648 37.3059 19.7184 37.3491 19.7866 37.3946C19.9241 37.4855 20.0559 37.5855 20.1797 37.6945C20.2388 37.7468 20.3445 37.7525 20.3388 37.6934C20.4547 37.6195 20.557 37.5764 20.691 37.5514V37.5525ZM22.2431 37.8854C22.2568 37.9343 22.2681 37.9843 22.275 38.0343C22.2727 38.0365 22.2704 38.0388 22.2681 38.0422C22.2602 38.0411 22.2522 38.0422 22.2431 38.0422C22.2761 37.999 22.259 37.9286 22.2102 37.915C22.217 37.9093 22.2227 37.9047 22.2295 37.9002C22.2352 37.8956 22.2386 37.89 22.242 37.8843L22.2431 37.8854ZM20.791 35.1664C20.791 35.1664 20.8024 35.1664 20.8081 35.1664C20.8024 35.1664 20.7967 35.1664 20.7899 35.1675C20.7899 35.1675 20.7899 35.1675 20.7899 35.1664H20.791ZM21.8977 36.1163C21.8966 36.1106 21.8943 36.1049 21.892 36.0992C21.9125 36.0958 21.9352 36.0947 21.9557 36.0924C21.9568 36.0958 21.9602 36.0981 21.9625 36.1015C21.9409 36.1061 21.9193 36.1106 21.8977 36.1163ZM18.3208 36.1481C18.3424 36.1447 18.364 36.1413 18.3856 36.1379C18.4401 36.1288 18.4947 36.1197 18.5492 36.1095C18.6515 36.0913 18.7526 36.072 18.8549 36.0549C19.0185 36.0265 19.1821 36.0049 19.3469 35.9981C19.3469 35.9981 19.3469 35.9981 19.348 35.9981C19.3298 36.0015 19.3116 36.0049 19.2946 36.0083C19.2298 36.0186 19.1662 36.0288 19.1014 36.0379C18.8435 36.0777 18.5856 36.1186 18.3276 36.1583C18.3254 36.1583 18.3242 36.1606 18.322 36.1606C18.322 36.1561 18.322 36.1504 18.322 36.1458L18.3208 36.1481ZM18.2924 35.5527C18.2924 35.5527 18.2924 35.5504 18.2924 35.5482C18.2924 35.5482 18.2947 35.5482 18.2947 35.5493C18.2936 35.5516 18.2924 35.555 18.2913 35.5573C18.2913 35.555 18.2913 35.5538 18.2913 35.5516L18.2924 35.5527ZM18.6322 35.5663C18.5753 35.5663 18.514 35.572 18.456 35.5709C18.4538 35.5686 18.4504 35.5675 18.4481 35.5652C18.6435 35.5561 18.839 35.547 19.0332 35.5379C18.956 35.547 18.8799 35.555 18.8026 35.5641C18.7458 35.5641 18.689 35.5652 18.6322 35.5663ZM21.3091 35.6152C21.4 35.6038 21.4909 35.5936 21.5818 35.5857C21.583 35.5857 21.5841 35.5879 21.5864 35.5879C21.4932 35.5947 21.4012 35.6038 21.3091 35.6152ZM21.5023 35.2766C21.5023 35.2846 21.5023 35.2925 21.5034 35.3005C21.5057 35.3084 21.5091 35.3141 21.5137 35.3198C21.4182 35.3357 21.3228 35.3505 21.2273 35.3664C21.133 35.3664 21.0387 35.3675 20.9433 35.3709C20.9478 35.3618 20.9512 35.3516 20.9535 35.3402C21.1364 35.3118 21.3194 35.2914 21.5034 35.2766H21.5023ZM18.5344 35.3448C18.5413 35.3573 18.5515 35.3675 18.5663 35.3732C18.481 35.3857 18.3958 35.3982 18.3117 35.4118C18.3095 35.4118 18.3083 35.413 18.3061 35.4141C18.3083 35.3925 18.3106 35.3698 18.3129 35.3482C18.3197 35.3505 18.3265 35.3516 18.3345 35.3516C18.4015 35.3493 18.4674 35.3471 18.5344 35.3448ZM18.3549 35.5641C18.3424 35.572 18.3299 35.5823 18.3242 35.5959C18.3197 35.6061 18.3163 35.6175 18.3151 35.6288C18.3151 35.6288 18.3129 35.6288 18.3117 35.6288C18.3117 35.5936 18.3117 35.5595 18.3106 35.5243C18.3186 35.5425 18.3345 35.5573 18.3549 35.5641ZM18.8037 35.7197H18.8128C18.8242 35.7197 18.8367 35.7197 18.848 35.7197C18.6719 35.7425 18.4947 35.7652 18.3186 35.7868C18.3174 35.7868 18.3163 35.7868 18.3151 35.7868V35.7845C18.4776 35.7606 18.6412 35.7391 18.8037 35.7197ZM18.3186 35.9424C18.6799 35.897 19.0412 35.8504 19.4025 35.805C19.4139 35.8152 19.4298 35.8209 19.4457 35.8231C19.4434 35.83 19.44 35.8356 19.4378 35.8425C19.173 35.8436 18.9117 35.8868 18.6515 35.9345C18.5413 35.9549 18.431 35.9743 18.3197 35.9913C18.3197 35.9754 18.3197 35.9595 18.3197 35.9436L18.3186 35.9424ZM18.3231 36.3049C18.3367 36.3106 18.3504 36.314 18.3674 36.3117C18.4617 36.297 18.556 36.2822 18.6503 36.2674C18.5413 36.2901 18.4322 36.314 18.3231 36.3413C18.3231 36.3288 18.3231 36.3174 18.3231 36.3049ZM20.6706 35.5413C20.6729 35.5493 20.6774 35.5573 20.6819 35.5641C20.6751 35.5663 20.6683 35.5686 20.6626 35.572C20.6535 35.5618 20.6433 35.5527 20.6331 35.5436C20.6456 35.5436 20.6581 35.5413 20.6706 35.5402V35.5413ZM20.1377 36.6696C20.1377 36.6696 20.14 36.6674 20.14 36.6651C20.1434 36.6651 20.1468 36.6651 20.149 36.6662C20.1445 36.6662 20.1411 36.6674 20.1365 36.6685L20.1377 36.6696ZM21.7046 36.0583C21.7046 36.0583 21.7046 36.0617 21.7046 36.0629C21.5716 36.0845 21.4375 36.1049 21.3046 36.1265C21.4375 36.1027 21.5705 36.0799 21.7034 36.0583H21.7046ZM20.9251 35.188C20.9183 35.1789 20.9103 35.1721 20.899 35.1675C20.9546 35.1675 21.0103 35.1675 21.066 35.1675C21.0183 35.1743 20.9717 35.18 20.924 35.188H20.9251ZM20.4615 35.1948C20.2888 35.2118 20.1161 35.2334 19.9434 35.2584C19.94 35.2402 19.9286 35.2221 19.9093 35.2073C19.9082 35.2073 19.907 35.2062 19.9059 35.205C20.0911 35.1959 20.2763 35.1925 20.4615 35.1948ZM18.3254 36.5003C18.7015 36.406 19.0844 36.3379 19.4696 36.297C19.4696 36.297 19.4696 36.2981 19.4707 36.2992C19.4468 36.3254 19.423 36.3504 19.3991 36.3765C19.3843 36.3685 19.3662 36.3629 19.3446 36.3663C19.0048 36.4197 18.6651 36.4731 18.3265 36.5265C18.3265 36.5174 18.3265 36.5083 18.3265 36.4992L18.3254 36.5003ZM19.1628 36.5526C19.1776 36.5674 19.1991 36.5753 19.2253 36.5696C19.2116 36.5935 19.2116 36.6196 19.223 36.6412C19.198 36.6696 19.1741 36.6969 19.1491 36.7253C19.1514 36.6787 19.1128 36.6265 19.0526 36.6367C18.8174 36.6765 18.581 36.7026 18.3424 36.714C18.3367 36.714 18.3333 36.7162 18.3288 36.7174C18.3288 36.706 18.3288 36.6946 18.3288 36.6844C18.6072 36.6401 18.8855 36.5969 19.1639 36.5526H19.1628ZM21.5898 38.8467C21.5807 38.8512 21.5728 38.8546 21.5637 38.8592C21.5693 38.8478 21.5762 38.8365 21.5818 38.8262C21.583 38.833 21.5853 38.841 21.5898 38.8467ZM20.8808 39.1376C20.8569 39.1296 20.8342 39.1205 20.8103 39.1114C20.8603 39.1126 20.9092 39.1103 20.9592 39.1035C20.9331 39.1137 20.9069 39.1262 20.8819 39.1376H20.8808ZM19.348 37.6548C19.3378 37.6548 19.3264 37.6582 19.3162 37.6593C19.3128 37.6593 19.3082 37.6593 19.3048 37.6582C19.3025 37.6536 19.3014 37.6491 19.2991 37.6445C19.3094 37.6445 19.3207 37.6445 19.3298 37.64C19.3355 37.6445 19.3423 37.6491 19.348 37.6548ZM18.3299 36.9753C18.3345 36.9923 18.3435 37.0037 18.356 37.0128C18.3481 37.0128 18.339 37.0128 18.331 37.0128C18.331 37.0003 18.331 36.9878 18.331 36.9742L18.3299 36.9753ZM19.8968 38.5047C19.8843 38.4944 19.8684 38.4876 19.8491 38.4876C19.8457 38.4876 19.8411 38.4876 19.8377 38.4876C19.8548 38.474 19.8718 38.4592 19.89 38.4456C19.8923 38.4649 19.8945 38.4854 19.8968 38.5047ZM19.2003 38.0911C19.2685 38.074 19.3639 38.0615 19.4309 38.0206C19.4287 38.0343 19.4309 38.0468 19.4355 38.0593C19.3571 38.0695 19.2787 38.0786 19.2014 38.0899L19.2003 38.0911ZM19.8934 38.0581C19.8934 38.0581 19.8934 38.0604 19.8934 38.0615C19.8866 38.0786 19.8786 38.0968 19.8718 38.1138C19.8695 38.0979 19.8638 38.0831 19.8536 38.0718C19.8638 38.0649 19.8752 38.0581 19.8854 38.0513C19.8888 38.0536 19.8911 38.0559 19.8945 38.0581H19.8934ZM18.5288 37.0446C18.5288 37.0446 18.5288 37.0401 18.5288 37.0378C18.5288 37.0401 18.5288 37.0423 18.5288 37.0446ZM18.6367 37.34C18.6469 37.3378 18.6583 37.3366 18.6685 37.3343C18.6719 37.3503 18.6776 37.3673 18.6833 37.3832C18.6685 37.3866 18.6549 37.3889 18.6401 37.3923C18.6458 37.3752 18.6447 37.3571 18.6367 37.34ZM18.3345 37.79C18.3345 37.79 18.3333 37.79 18.3322 37.79V37.7877C18.3322 37.7877 18.3333 37.7877 18.3345 37.7877V37.79ZM18.5935 37.7093C18.5958 37.7014 18.5969 37.6934 18.5969 37.6843C18.7151 37.6559 18.8355 37.6377 18.9571 37.6298C18.8344 37.6502 18.7128 37.6764 18.5935 37.7093ZM18.5356 37.023C18.5356 37.023 18.5378 37.0185 18.539 37.0162C18.539 37.0185 18.5367 37.0207 18.5356 37.023ZM18.3322 37.5786C18.3424 37.5832 18.3538 37.5866 18.3674 37.5855C18.3685 37.5855 18.3708 37.5855 18.372 37.5855C18.3595 37.59 18.3458 37.5934 18.3322 37.598C18.3322 37.5911 18.3322 37.5855 18.3322 37.5786ZM18.3697 37.9422C18.3913 37.9343 18.4117 37.9286 18.4333 37.9218C18.6549 37.8775 18.8764 37.8332 19.098 37.7877C19.1048 37.7968 19.1139 37.8047 19.1253 37.8093C19.1366 37.832 19.1582 37.8491 19.1912 37.8457C19.1969 37.8457 19.2025 37.8445 19.2082 37.8434C19.2082 37.8468 19.2082 37.8491 19.2082 37.8525C19.1116 37.8627 19.0162 37.8752 18.9208 37.89C18.9208 37.89 18.9196 37.89 18.9185 37.89C18.9185 37.89 18.9174 37.89 18.9162 37.89C18.7356 37.9184 18.5572 37.9547 18.3799 37.999C18.3526 38.0059 18.3367 38.024 18.3299 38.0445C18.3299 38.0115 18.3299 37.9775 18.3299 37.9445C18.3413 37.9468 18.3549 37.9479 18.3697 37.9422ZM18.3276 38.2229C18.4379 38.1831 18.5503 38.1479 18.6628 38.1161C18.6594 38.1388 18.6651 38.1627 18.6787 38.1808C18.5606 38.2036 18.4435 38.2286 18.3265 38.2547C18.3265 38.2445 18.3265 38.2331 18.3265 38.2229H18.3276ZM19.1912 38.2899C19.2219 38.2842 19.2378 38.2638 19.2446 38.2411C19.3048 38.232 19.3639 38.2252 19.4241 38.2172C19.4309 38.2274 19.44 38.2354 19.4525 38.2399C19.265 38.2774 19.0776 38.3149 18.8901 38.3558C18.9901 38.332 19.0912 38.3081 19.1923 38.2888L19.1912 38.2899ZM19.9797 38.774C19.9763 38.7387 19.9525 38.7069 19.9116 38.7035C19.9047 38.6762 19.8877 38.6569 19.865 38.6478C19.8729 38.6422 19.8809 38.6376 19.89 38.6319C19.9036 38.6228 19.9127 38.6115 19.9184 38.599C19.9354 38.6649 19.9616 38.7262 20.0013 38.7808C19.9956 38.7774 19.9888 38.7751 19.9809 38.774H19.9797ZM19.1446 37.6195L19.1219 37.6241C19.1219 37.6241 19.1207 37.623 19.1196 37.6218C19.1276 37.6218 19.1344 37.6184 19.1412 37.6173C19.1412 37.6173 19.1435 37.6173 19.1446 37.6184V37.6195ZM19.0117 37.6207C19.0117 37.6207 19.0196 37.6184 19.023 37.6161C19.0253 37.6161 19.0276 37.6161 19.0287 37.6173C19.023 37.6173 19.0173 37.6195 19.0117 37.6195V37.6207ZM18.3435 37.1696C18.347 37.1832 18.3538 37.1957 18.3629 37.2071C18.3504 37.2071 18.3401 37.2105 18.3322 37.2162C18.3322 37.2014 18.3322 37.1855 18.3322 37.1707C18.3356 37.1707 18.3401 37.1707 18.3435 37.1707V37.1696ZM20.0706 38.8955C20.0491 38.9001 20.0286 38.9046 20.007 38.9069C20.0286 38.8842 20.0388 38.8467 20.0297 38.8171C20.0559 38.8455 20.0831 38.8717 20.1138 38.8978C20.1013 38.8933 20.0877 38.891 20.0718 38.8955H20.0706ZM18.3845 36.8787C18.3549 36.8833 18.3356 36.9105 18.3299 36.9401C18.3299 36.9162 18.3299 36.8912 18.3299 36.8673C18.3345 36.8673 18.3367 36.8696 18.3413 36.8696C18.4208 36.8662 18.5003 36.8594 18.5799 36.8526C18.5151 36.8617 18.4504 36.8696 18.3856 36.8787H18.3845ZM19.0832 38.8012C19.1753 38.7785 19.173 38.7694 19.265 38.7467C19.3094 38.7353 19.3537 38.7251 19.398 38.7137C19.4196 38.7081 19.4423 38.7024 19.4639 38.6978L19.4912 38.691C19.5014 38.7126 19.5196 38.7297 19.5457 38.7319C19.5457 38.7365 19.5491 38.741 19.5514 38.7456C19.3173 38.7717 19.1798 38.7921 18.9492 38.8376C18.9946 38.8262 19.0389 38.8137 19.0844 38.8024L19.0832 38.8012ZM20.1343 39.0194C20.1343 39.0194 20.1331 39.0194 20.132 39.0194C20.1786 39.0001 20.1763 38.9671 20.1536 38.9296C20.2081 38.9728 20.274 38.991 20.332 39.0273C20.2649 39.0194 20.1945 39.0194 20.1343 39.0194ZM18.4333 38.5967C18.5753 38.574 18.6015 38.6467 18.7446 38.6274C18.6458 38.6433 18.6628 38.566 18.564 38.5819C18.4947 38.5933 18.4947 38.6706 18.5356 38.7103C18.5253 38.7126 18.5151 38.716 18.5049 38.7183C18.4265 38.7387 18.439 38.8399 18.4969 38.8649C18.4731 38.8705 18.4492 38.8762 18.4265 38.883C18.4299 38.7876 18.4322 38.6922 18.4344 38.5967H18.4333ZM19.7207 38.9194C19.6877 38.9421 19.6866 38.9546 19.6945 38.983C19.69 38.9887 19.6866 38.9944 19.6843 39.0012C19.6798 39.0012 19.6764 39.0012 19.6718 39.0012C19.6639 39.0012 19.6582 39.0035 19.6514 39.0046C19.6616 38.9705 19.6366 38.9489 19.6025 38.9296C19.6423 38.9262 19.6809 38.9217 19.7207 38.9183V38.9194ZM21.6864 38.0797C21.6864 38.0797 21.6875 38.0797 21.6887 38.0797C21.6887 38.0797 21.6887 38.0797 21.6875 38.0797H21.6864ZM20.2945 36.8435C20.2945 36.8435 20.2945 36.8344 20.2945 36.831C20.2911 36.8174 20.2843 36.8071 20.2763 36.7992C20.2899 36.7969 20.3024 36.7958 20.3161 36.7935C20.3297 36.7992 20.3445 36.8026 20.3627 36.798C20.6422 36.7355 20.9228 36.6765 21.2035 36.6185C21.2035 36.6231 21.2035 36.6276 21.2046 36.6321C20.9012 36.7026 20.5979 36.7719 20.2956 36.8423L20.2945 36.8435ZM21.366 36.2776C21.3444 36.281 21.3319 36.2913 21.3228 36.3049C21.1433 36.3401 20.9637 36.3754 20.7842 36.4094C20.7967 36.3935 20.8092 36.3765 20.8194 36.3583C20.824 36.3583 20.8274 36.3594 20.8319 36.3583C21.0592 36.3219 21.2864 36.2867 21.5137 36.2504C21.5137 36.2515 21.5137 36.2526 21.5137 36.2538C21.4648 36.2617 21.4148 36.2685 21.366 36.2765V36.2776ZM18.4265 39.0239C18.4265 39.0239 18.4379 39.0217 18.4424 39.0194C18.4526 39.0205 18.4629 39.0217 18.4742 39.0194C18.7912 38.9455 18.9867 39.0035 19.3094 38.9626C19.0219 39.0126 18.8583 38.9512 18.5708 39.0012C18.5219 39.0103 18.5072 39.0512 18.5174 39.0876C18.4924 39.0944 18.4663 39.1012 18.4413 39.1092C18.4333 39.1114 18.4276 39.116 18.4219 39.1194C18.4231 39.0876 18.4254 39.0558 18.4265 39.0239ZM21.6739 37.9377C21.6591 37.9479 21.65 37.9616 21.6455 37.9763C21.6353 37.9547 21.6239 37.9331 21.6114 37.9127C21.5978 37.89 21.5841 37.8672 21.5705 37.8434C21.5728 37.8434 21.5739 37.8434 21.5762 37.8434C21.5818 37.8411 21.5875 37.84 21.5932 37.8377C21.5887 37.8843 21.6262 37.9331 21.6887 37.9229C21.6909 37.9229 21.6943 37.9229 21.6966 37.9218C21.6887 37.9275 21.6818 37.9331 21.6739 37.9377ZM21.5353 37.6923C21.5159 37.6991 21.5034 37.7116 21.4944 37.7263C21.4784 37.7036 21.4637 37.6809 21.4466 37.6593C21.4591 37.6548 21.4728 37.6514 21.4853 37.6468C21.4944 37.6684 21.5125 37.6854 21.5341 37.6923H21.5353ZM20.4274 37.3957C20.432 37.3798 20.432 37.3627 20.4274 37.3468C20.6115 37.3218 20.7956 37.2946 20.9785 37.2628C20.9876 37.29 21.0103 37.3116 21.0478 37.3082C21.0921 37.3048 21.1364 37.3003 21.1808 37.2957C21.1603 37.3082 21.1398 37.3196 21.1194 37.3321C20.8887 37.2855 20.6456 37.3071 20.4274 37.3957ZM22.0863 35.8902C22.0863 35.8902 22.0863 35.8902 22.0863 35.8913V35.8902ZM18.172 36.6742C18.1777 37.2446 18.1799 37.815 18.1686 38.3854C18.1617 38.716 18.3379 38.858 18.3208 39.1887C18.3129 39.1853 18.3129 39.1887 18.3038 39.1887C18.2595 38.4513 18.1754 37.5741 18.1708 36.673L18.172 36.6742ZM18.4117 39.2069C18.4208 39.2137 18.431 39.2205 18.4435 39.2216C18.4333 39.2216 18.4219 39.2239 18.4117 39.2239C18.4117 39.2182 18.4117 39.2126 18.4117 39.2057V39.2069ZM18.4765 39.2182C18.5026 39.2103 18.5288 39.2035 18.556 39.1955C18.5572 39.2023 18.5606 39.2091 18.5628 39.2148C18.5299 39.216 18.4958 39.2171 18.4629 39.2194C18.4674 39.2194 18.4719 39.2194 18.4776 39.2182H18.4765ZM20.5308 39.2682C20.5422 39.2705 20.5865 39.275 20.6138 39.2807C20.5831 39.2807 20.5513 39.2807 20.5206 39.2807C20.524 39.2773 20.5274 39.2728 20.5308 39.2682ZM22.0625 35.7697C22.0682 35.7504 22.0659 35.7288 22.0568 35.7084C22.0545 35.7038 22.0511 35.6993 22.0488 35.6947C22.0579 35.6902 22.0659 35.6834 22.0716 35.6754C22.0761 35.7118 22.0795 35.7481 22.0818 35.7834C22.0761 35.7777 22.0693 35.7731 22.0625 35.7697ZM22.0409 35.5538C22.0409 35.5538 22.0409 35.5459 22.042 35.5413C22.0432 35.5459 22.0443 35.5504 22.0454 35.555C22.0443 35.555 22.042 35.555 22.0409 35.5538ZM21.9886 35.4675C21.9591 35.4595 21.9295 35.4539 21.9 35.4493C21.8989 35.4436 21.8977 35.4368 21.8943 35.4311C21.8943 35.4311 21.8932 35.43 21.892 35.4289C21.9261 35.4118 21.9409 35.3675 21.9295 35.3311C21.9318 35.3255 21.9329 35.3198 21.9341 35.313C21.9727 35.3686 22.0034 35.4277 22.0273 35.4925C22.0182 35.4811 22.0068 35.472 21.9886 35.4675ZM21.8364 35.2209C21.8216 35.1846 21.7841 35.1687 21.7455 35.1743C21.7386 35.1743 21.7318 35.1766 21.7261 35.1777C21.7284 35.1755 21.7307 35.1743 21.733 35.1721C21.7466 35.1596 21.7546 35.1437 21.7557 35.1289C21.7807 35.1482 21.8057 35.1664 21.8295 35.188C21.8409 35.1982 21.8489 35.2096 21.8591 35.2198C21.8523 35.2198 21.8443 35.2198 21.8375 35.2198L21.8364 35.2209ZM21.6103 35.0346C21.5955 35.0346 21.5807 35.0323 21.5659 35.0323C21.5625 35.0232 21.5591 35.0153 21.5523 35.0084C21.5716 35.0175 21.5909 35.0255 21.6103 35.0357V35.0346ZM20.0604 34.9971C20.0468 35.0016 20.0377 35.0084 20.0297 35.0164C20.0297 35.0096 20.0275 35.0016 20.0252 34.9959C20.0263 34.9959 20.0286 34.9959 20.0297 34.9959C20.04 34.9959 20.0502 34.996 20.0593 34.9971H20.0604ZM21.817 37.2582C21.817 37.2582 21.8125 37.2593 21.8102 37.2605C21.8091 37.2469 21.8023 37.2332 21.7943 37.2207C21.8136 37.2298 21.8318 37.24 21.8511 37.2503C21.8398 37.2503 21.8284 37.2525 21.817 37.2582ZM21.7137 37.1889C21.6773 37.1991 21.6398 37.2082 21.6034 37.2184C21.6159 37.1969 21.6159 37.173 21.6057 37.1514C21.6443 37.1605 21.683 37.173 21.7205 37.1878C21.7182 37.1878 21.7159 37.1878 21.7137 37.1878V37.1889ZM21.5512 36.7787C21.5512 36.7787 21.5466 36.7696 21.5444 36.7651C21.5512 36.7628 21.558 36.7605 21.5637 36.7583C21.5796 36.7594 21.5955 36.756 21.6091 36.7435C21.6273 36.7378 21.6443 36.731 21.6625 36.7253C21.6262 36.7503 21.5898 36.7753 21.5523 36.798C21.5523 36.7912 21.5523 36.7844 21.5512 36.7787ZM18.8696 34.9812C18.7003 34.9914 18.5128 35.1039 18.3435 35.1175C18.3447 35.1084 18.3458 35.0982 18.347 35.0891C18.5163 35.0857 18.7037 34.9823 18.873 34.98C18.8719 34.98 18.8708 34.98 18.8696 34.98V34.9812ZM21.3421 39.358C21.3421 39.358 21.3478 39.3591 21.3512 39.358C21.358 39.358 21.3648 39.3557 21.3716 39.3546C21.3716 39.3546 21.3773 39.3546 21.3796 39.3535C21.4512 39.3432 21.5205 39.3273 21.5875 39.3035C21.5875 39.3114 21.5887 39.3205 21.5921 39.3273C21.5091 39.3455 21.425 39.3591 21.341 39.3682C21.341 39.3648 21.3421 39.3614 21.3432 39.3569L21.3421 39.358ZM22.0568 37.3912C22.0443 37.3946 22.0318 37.398 22.0193 37.4025C22.0068 37.3662 21.9727 37.3355 21.9284 37.348C21.9341 37.3298 21.9318 37.3105 21.9227 37.2946C21.9261 37.2968 21.9284 37.298 21.9318 37.3003C21.9739 37.3275 22.0159 37.3582 22.0568 37.3912ZM20.5592 34.8448C20.5229 34.8494 20.4865 34.8551 20.4513 34.8607C20.332 34.8482 20.2127 34.8437 20.0934 34.8437C19.657 34.8221 19.2196 34.821 18.7821 34.8267C19.3741 34.813 19.9672 34.8187 20.5592 34.8448ZM19.4775 39.3966C19.5923 39.3921 19.707 39.3887 19.8218 39.3864C19.8218 39.3909 19.8218 39.3955 19.8241 39.4C19.7082 39.4 19.5934 39.3978 19.4775 39.3978V39.3966Z" fill="#EC0047"/>
</g>
</g>
<defs>
<filter id="filter0_i_189_35" x="0" y="0" width="40" height="40" filterUnits="userSpaceOnUse" color-interpolation-filters="sRGB">
<feFlood flood-opacity="0" result="BackgroundImageFix"/>
<feBlend mode="normal" in="SourceGraphic" in2="BackgroundImageFix" result="shape"/>
<feColorMatrix in="SourceAlpha" type="matrix" values="0 0 0 0 0 0 0 0 0 0 0 0 0 0 0 0 0 0 127 0" result="hardAlpha"/>
<feMorphology radius="0.447917" operator="erode" in="SourceAlpha" result="effect1_innerShadow_189_35"/>
<feOffset/>
<feComposite in2="hardAlpha" operator="arithmetic" k2="-1" k3="1"/>
<feColorMatrix type="matrix" values="0 0 0 0 0.133333 0 0 0 0 0.388235 0 0 0 0 0.470588 0 0 0 0.16 0"/>
<feBlend mode="normal" in2="shape" result="effect1_innerShadow_189_35"/>
</filter>
<clipPath id="clip0_189_35">
<rect width="30.9536" height="44.2102" fill="white" transform="translate(4.6665 7.3335)"/>
</clipPath>
</defs>
</svg>
