<svg width="188" height="44" viewBox="0 0 188 44" fill="none" xmlns="http://www.w3.org/2000/svg">
<path d="M144.408 42.8582V19.722L157.593 26.8847V20.6728H168.083V43.809L154.899 36.678V42.8582H144.408Z" fill="#EC0047"/>
<path d="M129.971 43.3654C122.935 43.3654 117.737 38.4846 117.737 31.7338C117.737 25.0148 122.935 20.134 129.971 20.134C137.007 20.134 142.205 25.0148 142.205 31.7338C142.205 38.4846 137.007 43.3654 129.971 43.3654ZM129.939 33.5087C130.922 33.5087 131.714 32.748 131.714 31.7338C131.714 30.7197 130.922 29.9907 129.939 29.9907C128.957 29.9907 128.196 30.7197 128.196 31.7338C128.196 32.748 128.957 33.5087 129.939 33.5087Z" fill="#EC0047"/>
<path d="M86.71 42.8582L91.0318 19.722L102.194 27.6137L112.984 19.722L117.863 42.8582H105.015V37.5337L102.194 39.4987L99.3732 37.5337V42.8582H86.71Z" fill="#EC0047"/>
<path d="M74.4456 43.3654C67.4096 43.3654 62.2119 38.4846 62.2119 31.7338C62.2119 25.0148 67.4096 20.134 74.4456 20.134C81.4816 20.134 86.6793 25.0148 86.6793 31.7338C86.6793 38.4846 81.4816 43.3654 74.4456 43.3654ZM74.4139 33.5087C75.3964 33.5087 76.1887 32.748 76.1887 31.7338C76.1887 30.7197 75.3964 29.9907 74.4139 29.9907C73.4314 29.9907 72.6708 30.7197 72.6708 31.7338C72.6708 32.748 73.4314 33.5087 74.4139 33.5087Z" fill="#EC0047"/>
<path d="M53.7825 32.9382H61.5791L59.6775 42.8582H43.292V20.6728H53.7825V32.9382Z" fill="#EC0047"/>
<path d="M28.8548 43.3654C21.8188 43.3654 16.6211 38.4846 16.6211 31.7338C16.6211 25.0148 21.8188 20.134 28.8548 20.134C35.8907 20.134 41.0885 25.0148 41.0885 31.7338C41.0885 38.4846 35.8907 43.3654 28.8548 43.3654ZM28.8231 33.5087C29.8056 33.5087 30.5979 32.748 30.5979 31.7338C30.5979 30.7197 29.8056 29.9907 28.8231 29.9907C27.8406 29.9907 27.0799 30.7197 27.0799 31.7338C27.0799 32.748 27.8406 33.5087 28.8231 33.5087Z" fill="#EC0047"/>
<path d="M3.07055 20.6728H14.29C4.46506 31.2584 22.2134 29.135 12.7054 42.8582H1.48588C10.9939 32.3043 -6.75443 34.4278 3.07055 20.6728Z" fill="#EC0047"/>
<circle cx="91.3912" cy="16.567" r="2.52107" fill="#EC0047"/>
<circle cx="112.64" cy="16.567" r="2.52107" fill="#EC0047"/>
<circle cx="178.096" cy="9.90421" r="9.90421" fill="url(#paint0_radial_31_2994)"/>
<path fill-rule="evenodd" clip-rule="evenodd" d="M174.139 6.57859C174.948 5.04542 177.144 5.04542 177.953 6.57859L181.09 12.5224C181.369 13.0501 181.167 13.7037 180.639 13.9822C180.111 14.2608 179.458 14.0587 179.179 13.531L176.046 7.59481L172.913 13.531C172.635 14.0587 171.981 14.2608 171.453 13.9822C170.926 13.7037 170.724 13.0501 171.002 12.5224L174.139 6.57859Z" fill="white"/>
<path fill-rule="evenodd" clip-rule="evenodd" d="M183.319 8.64368C183.915 8.64368 184.399 9.12741 184.399 9.72414L184.399 12.9655C184.399 13.5622 183.915 14.046 183.319 14.046C182.722 14.046 182.238 13.5622 182.238 12.9655L182.238 9.72414C182.238 9.12742 182.722 8.64368 183.319 8.64368Z" fill="white"/>
<circle cx="183.319" cy="6.5405" r="1.26054" fill="white"/>
<circle cx="176.116" cy="12.6563" r="1.26054" fill="white"/>
<defs>
<radialGradient id="paint0_radial_31_2994" cx="0" cy="0" r="1" gradientUnits="userSpaceOnUse" gradientTransform="translate(178.096 9.90421) rotate(90) scale(9.90421)">
<stop offset="0.546875" stop-color="#810BDE"/>
<stop offset="0.942708" stop-color="#CB8BE8"/>
</radialGradient>
</defs>
</svg>
